<svg width="51" height="50" viewBox="0 0 51 50" fill="none" xmlns="http://www.w3.org/2000/svg">
<path d="M22.7816 18.6189V21.4877H20.6816V24.9939H22.7816V35.4168H27.0983V24.9939H29.9941C29.9941 24.9939 30.2671 23.3127 30.3983 21.4731H27.115V19.0772C27.115 18.7168 27.5858 18.2356 28.0525 18.2356H30.4025V14.5835H27.2046C22.6754 14.5835 22.7816 18.0939 22.7816 18.6189Z" fill="black"/>
<path d="M13.0003 8.33317C11.8953 8.33317 10.8354 8.77216 10.054 9.55356C9.27265 10.335 8.83366 11.3948 8.83366 12.4998V37.4998C8.83366 38.6049 9.27265 39.6647 10.054 40.4461C10.8354 41.2275 11.8953 41.6665 13.0003 41.6665H38.0003C39.1054 41.6665 40.1652 41.2275 40.9466 40.4461C41.728 39.6647 42.167 38.6049 42.167 37.4998V12.4998C42.167 11.3948 41.728 10.335 40.9466 9.55356C40.1652 8.77216 39.1054 8.33317 38.0003 8.33317H13.0003ZM13.0003 4.1665H38.0003C40.2105 4.1665 42.3301 5.04448 43.8929 6.60728C45.4557 8.17008 46.3337 10.2897 46.3337 12.4998V37.4998C46.3337 39.71 45.4557 41.8296 43.8929 43.3924C42.3301 44.9552 40.2105 45.8332 38.0003 45.8332H13.0003C10.7902 45.8332 8.67057 44.9552 7.10777 43.3924C5.54497 41.8296 4.66699 39.71 4.66699 37.4998V12.4998C4.66699 10.2897 5.54497 8.17008 7.10777 6.60728C8.67057 5.04448 10.7902 4.1665 13.0003 4.1665V4.1665Z" fill="black"/>
</svg>
