<svg width="51" height="50" viewBox="0 0 51 50" fill="none" xmlns="http://www.w3.org/2000/svg">
<path d="M21.7083 35.4334C21.9583 35.4334 22.1479 35.425 22.2729 35.4084C22.4196 35.3787 22.5518 35.3001 22.6479 35.1854C22.7729 35.0542 22.8354 34.8646 22.8354 34.6146L22.8271 33.4542C22.8208 32.7146 22.8188 32.1271 22.8188 31.6959L22.4271 31.7646C22.1137 31.814 21.7963 31.8335 21.4792 31.8229C21.0808 31.8159 20.6836 31.7762 20.2917 31.7042C19.8758 31.6266 19.4844 31.4509 19.15 31.1917C18.7995 30.9265 18.5379 30.5611 18.4 30.1438L18.2292 29.75C18.0855 29.4399 17.905 29.1483 17.6917 28.8813C17.5001 28.6075 17.2449 28.3844 16.9479 28.2313L16.8292 28.1479C16.7474 28.0877 16.6732 28.0177 16.6083 27.9396C16.5454 27.8686 16.4934 27.7886 16.4542 27.7021C16.4208 27.6229 16.4479 27.5563 16.5375 27.5063C16.6947 27.4431 16.8644 27.4167 17.0333 27.4292L17.375 27.4813C17.6042 27.525 17.8854 27.6625 18.2208 27.8896C18.5542 28.1188 18.8313 28.4125 19.0479 28.7771C19.3104 29.2438 19.625 29.6 19.9958 29.8438C20.3232 30.0746 20.7121 30.2023 21.1125 30.2104C21.4875 30.2104 21.8125 30.1834 22.0854 30.1271C22.3511 30.072 22.6092 29.9853 22.8542 29.8688C22.9563 29.1084 23.2333 28.5209 23.6875 28.1125C23.0979 28.0542 22.5136 27.9511 21.9396 27.8042C21.3792 27.6497 20.8403 27.4258 20.3354 27.1375C19.8067 26.8507 19.3396 26.4628 18.9604 25.9959C18.5979 25.5396 18.3 24.9438 18.0646 24.2042C17.8191 23.3734 17.7018 22.51 17.7167 21.6438C17.7167 20.2688 18.1667 19.0959 19.0646 18.1292C18.6438 17.0938 18.6833 15.9334 19.1833 14.6479C19.5146 14.5438 20.0042 14.6209 20.6521 14.8771C21.3 15.1334 21.7771 15.3521 22.0771 15.5354C22.3792 15.7167 22.6188 15.8688 22.8021 15.9938C23.8691 15.6974 24.9718 15.5488 26.0792 15.5521C27.2042 15.5521 28.2979 15.6979 29.3563 15.9959L30.0021 15.5854C30.4479 15.3146 30.9708 15.0625 31.5729 14.8354C32.1771 14.6063 32.6375 14.5438 32.9563 14.6479C33.4688 15.9334 33.5146 17.0938 33.0917 18.1271C33.9917 19.0959 34.4417 20.2667 34.4417 21.6438C34.4417 22.6104 34.325 23.4667 34.0917 24.2125C33.8583 24.9584 33.5563 25.5542 33.1875 26.0042C32.8021 26.4665 32.3328 26.8518 31.8042 27.1396C31.2994 27.4279 30.7605 27.6519 30.2 27.8063C29.6253 27.9527 29.0403 28.055 28.45 28.1125C29.0417 28.6229 29.3375 29.4313 29.3375 30.5354V34.6125C29.3375 34.8063 29.3667 34.9625 29.4229 35.0834C29.4494 35.1409 29.4872 35.1925 29.5341 35.2351C29.581 35.2777 29.636 35.3104 29.6958 35.3313C29.8208 35.375 29.9333 35.4042 30.0292 35.4146C30.1271 35.4271 30.2646 35.4334 30.4458 35.4334H26.35H21.7083Z" fill="black"/>
<path d="M13.0003 8.33317C11.8953 8.33317 10.8354 8.77216 10.054 9.55356C9.27265 10.335 8.83366 11.3948 8.83366 12.4998V37.4998C8.83366 38.6049 9.27265 39.6647 10.054 40.4461C10.8354 41.2275 11.8953 41.6665 13.0003 41.6665H38.0003C39.1054 41.6665 40.1652 41.2275 40.9466 40.4461C41.728 39.6647 42.167 38.6049 42.167 37.4998V12.4998C42.167 11.3948 41.728 10.335 40.9466 9.55356C40.1652 8.77216 39.1054 8.33317 38.0003 8.33317H13.0003ZM13.0003 4.1665H38.0003C40.2105 4.1665 42.3301 5.04448 43.8929 6.60728C45.4557 8.17008 46.3337 10.2897 46.3337 12.4998V37.4998C46.3337 39.71 45.4557 41.8296 43.8929 43.3924C42.3301 44.9552 40.2105 45.8332 38.0003 45.8332H13.0003C10.7902 45.8332 8.67057 44.9552 7.10777 43.3924C5.54497 41.8296 4.66699 39.71 4.66699 37.4998V12.4998C4.66699 10.2897 5.54497 8.17008 7.10777 6.60728C8.67057 5.04448 10.7902 4.1665 13.0003 4.1665Z" fill="black"/>
</svg>
