<svg width="51" height="50" viewBox="0 0 51 50" fill="none" xmlns="http://www.w3.org/2000/svg">
<path d="M33.8691 4.1665H17.0566C13.7715 4.17036 10.6221 5.47722 8.29934 7.80033C5.97662 10.1234 4.6703 13.2731 4.66699 16.5582L4.66699 33.3707C4.67085 36.6558 5.97771 39.8052 8.30082 42.1279C10.6239 44.4506 13.7736 45.7569 17.0587 45.7603H33.8712C37.1563 45.7564 40.3057 44.4495 42.6284 42.1264C44.9511 39.8033 46.2574 36.6537 46.2607 33.3686V16.5561C46.2569 13.271 44.95 10.1216 42.6269 7.79886C40.3038 5.47614 37.1542 4.16981 33.8691 4.1665V4.1665ZM42.0774 33.3686C42.0774 34.4465 41.8651 35.5139 41.4526 36.5098C41.0401 37.5057 40.4355 38.4105 39.6732 39.1728C38.911 39.935 38.0061 40.5396 37.0103 40.9521C36.0144 41.3646 34.947 41.5769 33.8691 41.5769H17.0566C14.88 41.5764 12.7927 40.7113 11.2538 39.172C9.71484 37.6327 8.85033 35.5452 8.85033 33.3686V16.5561C8.85088 14.3795 9.71593 12.2922 11.2552 10.7533C12.7945 9.21435 14.882 8.34984 17.0587 8.34984H33.8712C36.0478 8.35039 38.1351 9.21544 39.674 10.7547C41.2129 12.294 42.0774 14.3815 42.0774 16.5582V33.3707V33.3686Z" fill="black"/>
<path d="M25.4622 14.2061C22.611 14.2105 19.8779 15.3452 17.862 17.3615C15.8461 19.3778 14.7119 22.1111 14.708 24.9623C14.7113 27.8142 15.8456 30.5484 17.862 32.5652C19.8784 34.582 22.6123 35.7168 25.4643 35.7206C28.3165 35.7173 31.051 34.5828 33.0679 32.5659C35.0848 30.5491 36.2193 27.8146 36.2226 24.9623C36.2182 22.1104 35.0829 19.3766 33.0657 17.3606C31.0485 15.3446 28.3141 14.2109 25.4622 14.2081V14.2061ZM25.4622 31.5373C23.7189 31.5373 22.0471 30.8448 20.8144 29.6121C19.5818 28.3795 18.8893 26.7076 18.8893 24.9644C18.8893 23.2211 19.5818 21.5493 20.8144 20.3166C22.0471 19.084 23.7189 18.3915 25.4622 18.3915C27.2054 18.3915 28.8773 19.084 30.1099 20.3166C31.3426 21.5493 32.0351 23.2211 32.0351 24.9644C32.0351 26.7076 31.3426 28.3795 30.1099 29.6121C28.8773 30.8448 27.2054 31.5373 25.4622 31.5373Z" fill="black"/>
<path d="M36.2421 16.8646C37.6654 16.8646 38.8192 15.7108 38.8192 14.2875C38.8192 12.8642 37.6654 11.7104 36.2421 11.7104C34.8188 11.7104 33.665 12.8642 33.665 14.2875C33.665 15.7108 34.8188 16.8646 36.2421 16.8646Z" fill="black"/>
</svg>
