<svg width="51" height="50" viewBox="0 0 51 50" fill="none" xmlns="http://www.w3.org/2000/svg">
<path d="M35.9163 27.3542V35.0563H31.4518V27.8688C31.4518 26.0646 30.8059 24.8334 29.1893 24.8334C27.9559 24.8334 27.2205 25.6625 26.8976 26.4667C26.7809 26.7542 26.7497 27.1542 26.7497 27.5542V35.0563H22.283C22.283 35.0563 22.3434 22.8854 22.283 21.625H26.7497V23.5271L26.7205 23.5709H26.7497V23.5292C27.3434 22.6125 28.4018 21.3084 30.7747 21.3084C33.7122 21.3084 35.9163 23.2292 35.9163 27.3542ZM17.6101 15.1479C16.083 15.1479 15.083 16.1521 15.083 17.4688C15.083 18.7604 16.0538 19.7917 17.5518 19.7917H17.5809C19.1393 19.7917 20.108 18.7584 20.108 17.4688C20.0788 16.1521 19.1393 15.1479 17.6101 15.1479ZM15.3476 35.0563H19.8143V21.625H15.3476V35.0563Z" fill="black"/>
<path d="M13.0003 8.33317C11.8953 8.33317 10.8354 8.77216 10.054 9.55356C9.27265 10.335 8.83366 11.3948 8.83366 12.4998V37.4998C8.83366 38.6049 9.27265 39.6647 10.054 40.4461C10.8354 41.2275 11.8953 41.6665 13.0003 41.6665H38.0003C39.1054 41.6665 40.1652 41.2275 40.9466 40.4461C41.728 39.6647 42.167 38.6049 42.167 37.4998V12.4998C42.167 11.3948 41.728 10.335 40.9466 9.55356C40.1652 8.77216 39.1054 8.33317 38.0003 8.33317H13.0003ZM13.0003 4.1665H38.0003C40.2105 4.1665 42.3301 5.04448 43.8929 6.60728C45.4557 8.17008 46.3337 10.2897 46.3337 12.4998V37.4998C46.3337 39.71 45.4557 41.8296 43.8929 43.3924C42.3301 44.9552 40.2105 45.8332 38.0003 45.8332H13.0003C10.7902 45.8332 8.67057 44.9552 7.10777 43.3924C5.54497 41.8296 4.66699 39.71 4.66699 37.4998V12.4998C4.66699 10.2897 5.54497 8.17008 7.10777 6.60728C8.67057 5.04448 10.7902 4.1665 13.0003 4.1665V4.1665Z" fill="black"/>
</svg>
