<svg width="315" height="216" viewBox="0 0 315 216" fill="none" xmlns="http://www.w3.org/2000/svg">
<path d="M282.506 216C300.452 216 315 212.46 315 208.092C315 203.725 300.452 200.185 282.506 200.185C264.56 200.185 250.012 203.725 250.012 208.092C250.012 212.46 264.56 216 282.506 216Z" fill="#FCFCFC"/>
<path d="M289 139.734C289 139.734 289 167.862 284.482 178.073L274.071 201C274.071 201 267.393 200.615 267 197.917L274.857 174.028L279.571 159.963L280.75 138L289 139.734Z" fill="#2F2E41"/>
<path d="M282.306 140.775L280.577 152.587L281.73 178.537L282.306 192.867C282.306 192.867 284.612 199.257 283.843 199.838L282.306 201C282.306 201 276.158 200.225 275.966 199.838C275.774 199.451 272.123 170.21 272.123 170.21C272.123 170.21 264.63 146.584 265.014 146.197C265.399 145.81 267.128 140 267.128 140L282.306 140.775Z" fill="#2F2E41"/>
<path d="M283.323 198L284.077 202.6C284.077 202.6 286.153 212 284.077 212C282.002 212 278.227 209.4 278.039 207.8C277.85 206.2 278.416 199 278.416 199L283.323 198Z" fill="#2F2E41"/>
<path d="M273.898 200.205C273.898 200.205 275.446 203.655 276.413 204.086C277.38 204.518 281.785 207.339 279.196 209.163C276.606 210.987 273.898 209.262 273.898 209.262L265 203.871C265 203.871 266.161 198.48 267.902 198.048C269.643 197.617 273.898 200.205 273.898 200.205Z" fill="#2F2E41"/>
<path d="M272 97C275.866 97 279 94.0899 279 90.5C279 86.9101 275.866 84 272 84C268.134 84 265 86.9101 265 90.5C265 94.0899 268.134 97 272 97Z" fill="#FFB8B8"/>
<path d="M276.917 91C276.917 91 278.323 99.8422 279.729 100.996C281.135 102.149 276.716 106.186 274.708 105.993C272.7 105.801 270.491 101.572 270.491 101.572C270.491 101.572 271.093 95.9978 270.089 94.46C269.085 92.9222 276.917 91 276.917 91Z" fill="#FFB8B8"/>
<path d="M276.39 101.95L279.645 99C280.692 100.292 281.997 101.36 283.481 102.138C285.972 103.455 278.69 117 278.69 117L267 102.702C267 102.702 270.718 100.276 271.925 99.3254L276.39 101.95Z" fill="#F2F2F2"/>
<path d="M277.752 114.149C277.752 114.149 282.792 104.973 282.246 102C282.246 102 289.599 103.936 289.975 106.489C290.351 109.042 286.402 118.273 286.402 118.273C286.402 118.273 289.599 141.643 287.718 141.84C285.838 142.036 267.034 142.232 266.658 141.25C266.282 140.269 267.034 137.323 265.906 136.341C264.777 135.359 263.461 135.948 264.025 134.377C264.589 132.806 267.034 130.842 266.282 129.663C265.529 128.485 265.341 128.878 265.529 128.092C265.717 127.307 265.153 116.898 265.153 116.898C265.153 116.898 261.205 105.507 262.145 104.722C263.085 103.936 268.017 102 268.017 102L277.752 114.149Z" fill="#F6E332"/>
<path d="M294 144.398C294 144.398 293.441 152.385 290.275 151.986C287.11 151.586 290.834 143 290.834 143L294 144.398Z" fill="#FFB8B8"/>
<path d="M264 143.993C264 143.993 265.385 148.341 267 147.979V142.906L266.308 142L264 143.993Z" fill="#FFB8B8"/>
<path d="M277.61 91.4403C277.592 91.2222 277.525 91.0126 277.415 90.8307C277.304 90.6921 277.159 90.5909 276.999 90.5387C276.575 90.3932 276.118 90.4197 275.71 90.6134C275.301 90.8071 274.969 91.1555 274.772 91.596C274.596 92.02 274.512 92.566 274.127 92.7549C273.679 92.9744 273.183 92.5071 273.007 92.0011C272.831 91.4952 272.827 90.9218 272.592 90.4459C272.314 89.8816 271.753 89.549 271.185 89.4156C270.714 89.3052 270.139 89.2472 269.926 88.7692C269.858 88.5866 269.828 88.3888 269.841 88.1914C269.846 87.4876 269.96 86.7901 270.18 86.1298C268.318 85.7178 266.662 87.7309 264.763 87.7633C264.522 87.7788 264.282 87.7266 264.064 87.6117C263.643 87.3624 263.46 86.8098 263.333 86.2997C263.198 85.7579 263.087 85.2098 263 84.6552L263.608 84.9642C263.439 84.6054 263.346 84.2083 263.337 83.8035C263.651 83.7672 263.968 83.7969 264.272 83.8909L264.316 82.6836C264.786 83.3435 265.723 83.1115 266.43 82.806C267.794 82.2165 269.151 81.5783 270.583 81.2381C272.015 80.8979 273.549 80.8728 274.903 81.4909C276.326 82.1405 277.423 83.4323 278.389 84.759C278.925 85.4945 279.443 86.2674 279.732 87.1564C280.093 88.36 280.089 89.6615 279.72 90.8623C279.409 91.9433 278.829 93.2509 278.049 94C277.776 93.2348 277.739 92.2588 277.61 91.4403Z" fill="#2F2E41"/>
<path d="M264.124 103L261.47 103.592C261.47 103.592 258.408 106.746 258.204 109.704C258 112.662 258 127.451 258 127.451L261.879 139.676C261.879 139.676 261.47 142.437 261.879 142.437C262.287 142.437 262.491 141.845 262.491 142.634C262.491 143.423 261.47 142.634 262.491 143.423L264.532 145L267.944 140.631C267.944 140.631 268.207 138.887 267.594 138.493C266.982 138.099 266.982 137.901 267.186 137.31C267.39 136.718 267.798 136.521 267.594 136.127C267.39 135.732 266.778 135.141 266.778 134.746C266.778 134.352 266.778 133.958 266.574 133.761C266.37 133.563 264.941 128.831 264.941 128.831L265.757 113.451L264.124 103Z" fill="#F2F2F2"/>
<path d="M288.436 105L290.458 105.962C290.458 105.962 293.692 115.192 293.692 123.269C293.692 131.346 294.298 136.731 294.298 136.731C294.298 136.731 295.309 139.038 294.905 139.038C294.5 139.038 294.096 139.038 294.5 139.615C294.905 140.192 295.107 140 294.905 140.577C294.702 141.154 294.5 140.192 294.702 141.154C294.905 142.115 294.702 142.5 294.298 142.5C293.894 142.5 293.894 145 293.894 145L289.043 143.269C289.043 143.269 289.851 142.308 289.649 141.923C289.526 141.683 289.457 141.421 289.447 141.154C289.447 141.154 290.458 140.962 289.447 140.577C288.436 140.192 288.841 140.192 289.043 139.038C289.245 137.885 289.851 138.077 289.245 137.885C288.638 137.692 285 119.808 285 119.808L288.436 105Z" fill="#F2F2F2"/>
<path d="M276 105C276.552 105 277 104.552 277 104C277 103.448 276.552 103 276 103C275.448 103 275 103.448 275 104C275 104.552 275.448 105 276 105Z" fill="#2F2E41"/>
<path d="M150 30.0711V142.931C149.999 144.276 149.455 145.565 148.486 146.515C147.518 147.466 146.204 148 144.835 148H98.1652C97.4868 148.001 96.8148 147.871 96.1877 147.617C95.5607 147.362 94.9909 146.989 94.511 146.518C94.0312 146.047 93.6507 145.488 93.3914 144.872C93.1321 144.257 92.9991 143.597 93 142.931V30.0711C93 29.4051 93.1336 28.7457 93.3931 28.1304C93.6527 27.5152 94.0332 26.9561 94.5128 26.4852C94.9924 26.0143 95.5619 25.6408 96.1885 25.386C96.8152 25.1311 97.4869 25 98.1652 25H105.15V25.8799C105.15 26.9873 105.598 28.0494 106.396 28.8324C107.194 29.6155 108.275 30.0554 109.403 30.0554H133.138C134.266 30.0554 135.348 29.6155 136.146 28.8324C136.943 28.0494 137.391 26.9873 137.391 25.8799V25H144.835C145.513 24.9998 146.185 25.1308 146.812 25.3856C147.438 25.6403 148.008 26.0139 148.488 26.4848C148.967 26.9557 149.348 27.5149 149.607 28.1302C149.867 28.7456 150 29.4051 150 30.0711Z" fill="#F6E332"/>
<path d="M148 44H96V69H148V44Z" fill="#3F3D56"/>
<path d="M116.414 61.0567C117.786 66.5796 122.483 70 122.483 70C122.483 70 124.957 64.4661 123.586 58.9433C122.214 53.4204 117.517 50 117.517 50C117.517 50 115.043 55.5339 116.414 61.0567Z" fill="white"/>
<path d="M117.972 60.1911C121.562 64.0571 122 70 122 70C122 70 116.618 69.6749 113.028 65.8089C109.438 61.9429 109 56 109 56C109 56 114.382 56.3251 117.972 60.1911Z" fill="#F6E332"/>
<path d="M129.586 61.0567C128.214 66.5796 123.517 70 123.517 70C123.517 70 121.043 64.4661 122.414 58.9433C123.786 53.4204 128.483 50 128.483 50C128.483 50 130.957 55.5339 129.586 61.0567Z" fill="white"/>
<path d="M126.338 60.1911C122.472 64.0571 122 70 122 70C122 70 127.796 69.6749 131.662 65.8089C135.528 61.9429 136 56 136 56C136 56 130.204 56.3251 126.338 60.1911Z" fill="#F6E332"/>
<path d="M143 83H100V85H143V83Z" fill="#F0F0F0"/>
<path d="M143 87H100V89H143V87Z" fill="#F0F0F0"/>
<path d="M143 91H100V94H143V91Z" fill="#F0F0F0"/>
<path d="M143 95H100V97H143V95Z" fill="#F0F0F0"/>
<path d="M129.715 114.959L120.12 108.162L113.309 117.736L122.904 124.532L129.715 114.959Z" fill="#F0F0F0"/>
<path d="M123.5 127C123.006 127 122.522 126.824 122.111 126.494C121.7 126.165 121.38 125.696 121.19 125.148C121.001 124.6 120.952 123.997 121.048 123.415C121.145 122.833 121.383 122.298 121.732 121.879C122.082 121.459 122.527 121.173 123.012 121.058C123.497 120.942 124 121.001 124.457 121.228C124.914 121.455 125.304 121.84 125.579 122.333C125.853 122.827 126 123.407 126 124C125.999 124.795 125.736 125.558 125.267 126.12C124.798 126.683 124.163 126.999 123.5 127ZM123.5 121.5C123.088 121.5 122.685 121.647 122.343 121.921C122 122.196 121.733 122.586 121.575 123.043C121.418 123.5 121.376 124.003 121.457 124.488C121.537 124.973 121.736 125.418 122.027 125.768C122.318 126.117 122.689 126.356 123.094 126.452C123.498 126.548 123.917 126.499 124.297 126.31C124.678 126.12 125.003 125.8 125.232 125.389C125.461 124.978 125.583 124.494 125.583 124C125.583 123.337 125.363 122.702 124.972 122.233C124.582 121.764 124.052 121.501 123.5 121.5Z" fill="#3F3D56"/>
<path d="M56 5.11231V118.89C55.9994 120.245 55.4645 121.545 54.5129 122.503C53.5612 123.462 52.2709 124 50.9254 124H5.07462C4.40807 124.001 3.74785 123.87 3.13179 123.613C2.51573 123.357 1.95595 122.981 1.48452 122.506C1.0131 122.031 0.639306 121.468 0.384563 120.847C0.12982 120.227 -0.000863236 119.561 4.29103e-06 118.89V5.11231C-2.44765e-05 4.44095 0.131214 3.77615 0.386227 3.15588C0.64124 2.53562 1.01503 1.97203 1.48626 1.4973C1.95748 1.02257 2.51692 0.646004 3.13261 0.389096C3.7483 0.132188 4.4082 -2.75817e-05 5.07462 2.70423e-07H11.9371V0.88705C11.9371 2.00347 12.3773 3.07416 13.161 3.86359C13.9446 4.65302 15.0074 5.09652 16.1155 5.09653H39.4341C40.5423 5.09652 41.6051 4.65301 42.3887 3.86358C43.1723 3.07416 43.6125 2.00347 43.6126 0.88705V2.70423e-07H50.9254C51.5918 -0.00021814 52.2518 0.131866 52.8676 0.388707C53.4834 0.645547 54.0429 1.02211 54.5142 1.49688C54.9854 1.97164 55.3592 2.53531 55.6142 3.15566C55.8691 3.77601 56.0002 4.44089 56 5.11231Z" fill="#F2F2F2"/>
<path d="M51 62H6V22H51V62ZM6.44999 61.5531H50.55V22.4469H6.44999V61.5531Z" fill="#3F3D56"/>
<path d="M5.8058 21.7826L5.50415 22.1193L50.3095 62.0825L50.6111 61.7458L5.8058 21.7826Z" fill="#3F3D56"/>
<path d="M50.3099 21.783L5.50391 61.7455L5.80555 62.0822L50.6115 22.1197L50.3099 21.783Z" fill="#3F3D56"/>
<path d="M51 82H6V83H51V82Z" fill="#3F3D56"/>
<path d="M28 90H6V91H28V90Z" fill="#3F3D56"/>
<path d="M243 5.11231V118.89C242.999 120.245 242.464 121.545 241.513 122.503C240.561 123.462 239.271 124 237.925 124H192.075C191.408 124.001 190.748 123.87 190.132 123.613C189.516 123.357 188.956 122.981 188.485 122.506C188.013 122.031 187.639 121.468 187.385 120.847C187.13 120.227 186.999 119.561 187 118.89V5.11231C187 4.44095 187.131 3.77615 187.386 3.15589C187.641 2.53562 188.015 1.97203 188.486 1.4973C188.957 1.02258 189.517 0.646007 190.133 0.389098C190.748 0.13219 191.408 -2.68271e-05 192.075 2.72288e-07H198.937V0.88705C198.937 2.00347 199.377 3.07416 200.161 3.86359C200.945 4.65302 202.007 5.09652 203.116 5.09653H226.434C227.542 5.09652 228.605 4.65301 229.389 3.86358C230.172 3.07416 230.613 2.00347 230.613 0.88705V2.72288e-07H237.925C238.592 -0.000218891 239.252 0.131867 239.868 0.388707C240.483 0.645547 241.043 1.02211 241.514 1.49687C241.985 1.97164 242.359 2.5353 242.614 3.15566C242.869 3.77601 243 4.44089 243 5.11231Z" fill="#F2F2F2"/>
<path d="M213.5 41C217.642 41 221 37.866 221 34C221 30.134 217.642 27 213.5 27C209.358 27 206 30.134 206 34C206 37.866 209.358 41 213.5 41Z" fill="#F6E332"/>
<path d="M229 56H225V63H229V56Z" fill="#F6E332"/>
<path d="M201 68H198V74H201V68Z" fill="#F6E332"/>
<path d="M220 79H217V86H220V79Z" fill="#F6E332"/>
<path d="M214 42C212.22 42 210.48 41.4722 209 40.4832C207.52 39.4943 206.366 38.0887 205.685 36.4442C205.004 34.7996 204.826 32.99 205.173 31.2442C205.52 29.4984 206.377 27.8947 207.636 26.636C208.895 25.3774 210.498 24.5202 212.244 24.1729C213.99 23.8257 215.8 24.0039 217.444 24.6851C219.089 25.3663 220.494 26.5198 221.483 27.9999C222.472 29.4799 223 31.22 223 33C222.997 35.3861 222.048 37.6737 220.361 39.361C218.674 41.0482 216.386 41.9973 214 42ZM214 24.45C212.309 24.45 210.656 24.9514 209.25 25.8909C207.844 26.8304 206.748 28.1657 206.101 29.728C205.454 31.2904 205.284 33.0095 205.614 34.668C205.944 36.3265 206.758 37.85 207.954 39.0458C209.15 40.2415 210.673 41.0558 212.332 41.3857C213.991 41.7156 215.71 41.5463 217.272 40.8992C218.834 40.252 220.17 39.1562 221.109 37.7501C222.049 36.3441 222.55 34.691 222.55 33C222.547 30.7332 221.646 28.56 220.043 26.9571C218.44 25.3542 216.267 24.4526 214 24.45Z" fill="#3F3D56"/>
<path d="M62.675 59.6997L62.2319 60.0647L80.3899 82.0065L80.833 81.6415L62.675 59.6997Z" fill="#FCFCFC"/>
<path d="M83 84C81.2739 83.2104 78.8831 82.3931 77 82.1479L80.1369 81.2633L81.8305 79C81.7793 80.5058 82.3438 82.5132 83 84Z" fill="#FCFCFC"/>
<path d="M179.9 59.6975L161.747 81.6434L162.19 82.0085L180.344 60.0626L179.9 59.6975Z" fill="#FCFCFC"/>
<path d="M160 84C160.547 82.513 161.017 80.5057 160.974 79L162.386 81.2635L165 82.1476C163.431 82.3929 161.438 83.2101 160 84Z" fill="#FCFCFC"/>
</svg>
