<svg width="449" height="385" viewBox="0 0 449 385" fill="none" xmlns="http://www.w3.org/2000/svg">
<g clip-path="url(#clip0_793_38)">
<path d="M61.7556 377.137C60.862 377.193 60.3681 376.082 61.0442 375.434L61.1115 375.166L61.0847 375.102C60.181 372.946 57.1182 372.961 56.2222 375.12C55.4269 377.037 54.4144 378.957 54.165 380.984C54.0533 381.879 54.1036 382.79 54.3019 383.668C52.4384 379.594 51.4578 375.146 51.4578 370.673C51.4578 369.549 51.5193 368.425 51.645 367.304C51.7484 366.387 51.8909 365.475 52.0753 364.572C53.0726 359.691 55.2323 355.041 58.3474 351.158C59.8449 350.339 61.0937 349.058 61.8481 347.523C62.1191 346.97 62.3314 346.374 62.432 345.767C62.2616 345.79 61.7894 343.192 61.9179 343.033C61.6804 342.672 61.2553 342.493 60.996 342.141C59.7059 340.391 57.9286 340.697 57.0008 343.075C55.0187 344.076 54.9995 345.736 56.2157 347.333C56.9894 348.349 57.0958 349.723 57.7747 350.811C57.7048 350.901 57.6322 350.987 57.5623 351.077C56.2815 352.721 55.1737 354.488 54.2398 356.344C54.5038 354.281 54.1141 351.795 53.4498 350.193C52.6936 348.368 51.2762 346.83 50.0281 345.252C48.5288 343.356 45.4545 344.184 45.1903 346.587L45.1829 346.656C45.3683 346.761 45.5499 346.872 45.7273 346.99C46.7392 347.659 46.3895 349.229 45.1904 349.415L45.1633 349.419C45.2304 350.087 45.3449 350.75 45.5125 351.401C43.9113 357.598 47.3682 359.855 52.3043 359.956C52.4133 360.012 52.5194 360.068 52.6284 360.121C52.1283 361.53 51.7288 362.976 51.4326 364.441C51.1672 365.735 50.9828 367.044 50.8795 368.358C50.7509 370.016 50.7621 371.682 50.9018 373.337L50.8934 373.279C50.5386 371.456 49.5496 369.753 48.1136 368.573C45.9743 366.814 42.9519 366.167 40.6441 364.753C39.5331 364.073 38.1095 364.952 38.3034 366.241L38.3128 366.303C38.6565 366.443 38.9917 366.605 39.3158 366.786C39.5012 366.891 39.6828 367.002 39.8602 367.12C40.8722 367.79 40.5225 369.359 39.3234 369.545L39.2962 369.549L39.2404 369.557C39.8299 370.958 40.6512 372.258 41.6794 373.379C42.6806 378.789 46.9808 379.302 51.5807 377.727H51.5835C52.0864 379.919 52.8212 382.06 53.7655 384.101H61.5603C61.5882 384.015 61.6134 383.925 61.6385 383.838C60.9177 383.883 60.1913 383.841 59.4817 383.71C60.06 383 60.6383 382.284 61.2166 381.574C61.2306 381.56 61.2418 381.546 61.253 381.532C61.5463 381.168 61.8425 380.808 62.1358 380.444C62.1542 379.329 62.0204 378.216 61.7556 377.137Z" fill="#F2F2F2"/>
<path d="M393.53 377.137C394.423 377.193 394.917 376.082 394.241 375.434L394.174 375.166L394.201 375.102C395.104 372.946 398.167 372.961 399.063 375.12C399.858 377.037 400.871 378.957 401.12 380.984C401.232 381.879 401.182 382.79 400.983 383.668C402.847 379.594 403.827 375.146 403.827 370.673C403.827 369.549 403.766 368.425 403.64 367.304C403.537 366.387 403.394 365.475 403.21 364.572C402.213 359.691 400.053 355.041 396.938 351.158C395.44 350.339 394.192 349.058 393.437 347.523C393.166 346.97 392.954 346.374 392.853 345.767C393.024 345.79 393.496 343.192 393.367 343.033C393.605 342.672 394.03 342.493 394.289 342.141C395.579 340.391 397.357 340.697 398.284 343.075C400.267 344.076 400.286 345.736 399.07 347.333C398.296 348.349 398.189 349.723 397.511 350.811C397.58 350.901 397.653 350.987 397.723 351.077C399.004 352.721 400.112 354.488 401.045 356.344C400.781 354.281 401.171 351.795 401.835 350.193C402.592 348.368 404.009 346.83 405.257 345.252C406.756 343.356 409.831 344.184 410.095 346.587L410.102 346.656C409.917 346.761 409.735 346.872 409.558 346.99C408.546 347.659 408.896 349.229 410.095 349.415L410.122 349.419C410.055 350.087 409.94 350.75 409.773 351.401C411.374 357.598 407.917 359.855 402.981 359.956C402.872 360.012 402.766 360.068 402.657 360.121C403.157 361.53 403.557 362.976 403.853 364.441C404.118 365.735 404.302 367.044 404.406 368.358C404.534 370.016 404.523 371.682 404.383 373.337L404.392 373.279C404.747 371.456 405.736 369.753 407.172 368.573C409.311 366.814 412.333 366.167 414.641 364.753C415.752 364.073 417.176 364.952 416.982 366.241L416.972 366.303C416.629 366.443 416.294 366.605 415.969 366.786C415.784 366.891 415.602 367.002 415.425 367.12C414.413 367.79 414.763 369.359 415.962 369.545L415.989 369.549L416.045 369.557C415.455 370.958 414.634 372.258 413.606 373.379C412.605 378.789 408.304 379.302 403.704 377.727H403.702C403.199 379.919 402.464 382.06 401.52 384.101H393.725C393.697 384.015 393.672 383.925 393.647 383.838C394.367 383.883 395.094 383.841 395.804 383.71C395.225 383 394.647 382.284 394.069 381.574C394.055 381.56 394.043 381.546 394.032 381.532C393.739 381.168 393.443 380.808 393.149 380.444C393.131 379.329 393.265 378.216 393.53 377.137Z" fill="#F2F2F2"/>
<path d="M242.621 380.441L249.312 380.44L252.495 354.614L242.62 354.614L242.621 380.441Z" fill="#FFB6B6"/>
<path d="M265.545 380.289C265.753 380.64 265.863 381.774 265.863 382.182C265.863 383.437 264.846 384.454 263.592 384.454H242.871C242.016 384.454 241.322 383.76 241.322 382.904V382.041C241.322 382.041 240.297 379.446 242.407 376.248C242.407 376.248 245.03 378.752 248.95 374.83L250.106 372.735L258.472 378.858L263.109 379.429C264.124 379.554 265.023 379.41 265.545 380.289Z" fill="#2F2E41"/>
<path d="M196.412 380.441L203.103 380.44L206.286 354.614L196.411 354.614L196.412 380.441Z" fill="#FFB6B6"/>
<path d="M219.336 380.289C219.544 380.64 219.654 381.774 219.654 382.182C219.654 383.437 218.637 384.454 217.383 384.454H196.662C195.807 384.454 195.113 383.76 195.113 382.904V382.041C195.113 382.041 194.088 379.446 196.198 376.248C196.198 376.248 198.821 378.752 202.741 374.83L203.896 372.735L212.263 378.858L216.9 379.429C217.914 379.554 218.814 379.41 219.336 380.289Z" fill="#2F2E41"/>
<path d="M0.747846 385H448.252C448.665 385 449 384.665 449 384.252C449 383.838 448.665 383.503 448.252 383.503H0.747846C0.33482 383.503 0 383.838 0 384.252C0 384.665 0.33482 385 0.747846 385Z" fill="#E6E6E6"/>
<path d="M244.621 258.466L247.101 261.73C247.101 261.73 247.326 263.254 251.086 275.672L253.15 369.007H240.667L223.985 294.328L206.67 370.505L195.85 371.143L196.358 284.56C196.358 284.56 195.218 281.547 196.188 278.016C199.897 264.502 199.683 268.065 199.835 263.439C200.028 257.573 244.621 258.466 244.621 258.466Z" fill="#2F2E41"/>
<path d="M224.946 180.033C232.179 180.033 238.043 174.165 238.043 166.926C238.043 159.687 232.179 153.819 224.946 153.819C217.712 153.819 211.849 159.687 211.849 166.926C211.849 174.165 217.712 180.033 224.946 180.033Z" fill="#FEB8B8"/>
<path d="M217.904 182.499L210.657 186.507C204.61 186.945 200.274 188.555 196.421 190.496L200.67 227.778L199.897 264.502C199.897 264.502 223.995 281.023 247.102 261.729V211.83L246.017 191.987C245.891 189.673 243.846 187.878 241.551 188.182C240.24 188.355 238.73 188.322 237.188 187.807L232.392 182.237L217.904 182.499Z" fill="#F6E332"/>
<path d="M258.879 151.742C259.61 153.392 259.908 155.07 259.811 156.524L267.765 171.798L260.392 175.373L253.117 159.494C251.975 158.59 250.933 157.242 250.202 155.593C248.532 151.824 249.121 147.908 251.517 146.844C253.914 145.781 257.21 147.974 258.879 151.742Z" fill="#FFB6B6"/>
<path d="M237.188 187.807L239.382 188.812C241.395 186.646 247.459 186.987 250.402 187.268L263.331 188.501L257.293 169.598L266.383 165.938L277.244 186.856C277.901 190.404 276.427 194.01 273.473 196.08L245.762 211.829L242.541 190.257L237.188 187.807Z" fill="#F6E332"/>
<path d="M170.176 276.472C170.314 274.673 170.847 273.054 171.621 271.819L171.855 254.597L180.04 254.948L178.922 272.38C179.499 273.719 179.779 275.4 179.641 277.199C179.325 281.309 176.951 284.478 174.338 284.277C171.724 284.076 169.861 280.582 170.176 276.472Z" fill="#FFB6B6"/>
<path d="M202.487 195.207L198.725 189.489C198.725 189.489 192.59 190.661 189.331 195.29C186.071 199.919 173.75 228.307 173.75 228.307L171.384 260.354L180.548 258.466L184.97 234.161L199.189 214.717L202.487 195.207Z" fill="#F6E332"/>
<path d="M238.043 168.664C238.535 166.166 230.943 162.53 230.957 162.534C232.135 162.91 230.282 165.071 229.071 164.816C229.071 164.816 227.293 165.722 228.262 166.5C224.921 166.214 220.457 163.037 217.116 162.75C215.772 162.632 215.252 165.875 214.408 166.926C213.13 168.535 211.849 165.335 212.321 169.598H212.13C211.433 167.916 210.735 166.204 210.508 164.396C210.287 162.588 210.596 160.641 211.749 159.23C212.13 158.753 210.63 157.18 211.034 156.725C212.319 155.248 214.811 154.439 215.956 152.86C217.472 150.767 219.197 152.244 222.354 150.484C223.18 150.023 224.616 149.858 225.531 150.097L227.668 150.655C227.251 151.281 227.767 152.105 228.511 152.004L231.295 151.625C232.345 151.963 233.344 152.463 233.813 153.425C234.1 153.999 234.151 154.667 234.372 155.27C234.775 156.379 235.73 157.18 236.494 158.077C238.546 158.675 238.657 160.211 238.657 162.786C240.57 163.86 238.574 166.261 238.043 168.664Z" fill="#2F2E41"/>
<path d="M23.7211 47.519C24.3172 45.8438 25.9797 44.855 27.6724 45.045C28.3778 45.1241 29.0826 45.187 29.7913 45.1453C47.465 44.1051 69.3554 54.2319 92.6586 68.1001C71.3259 50.8262 51.8014 35.5455 28.838 51.2488C27.1977 52.3705 24.8738 51.9743 23.9197 50.2306C23.5364 49.53 23.3979 48.6905 23.6265 47.8245C23.6535 47.7223 23.685 47.6204 23.7211 47.519Z" fill="#E6E6E6"/>
<path d="M141.596 6.08589C143.053 7.01533 143.652 8.78294 143.166 10.3587L143.112 10.5365C142.625 12.1183 141.565 13.4473 140.161 14.3221C120.065 26.8419 143.332 42.8643 106.139 68.7264C124.15 49.4403 138.964 4.77759 141.214 5.87218C141.344 5.93522 141.471 6.00641 141.596 6.08589Z" fill="#E6E6E6"/>
<path d="M172.399 103.988C171.65 105.546 169.967 106.351 168.346 106.056L168.163 106.022C166.536 105.727 165.091 104.831 164.057 103.54C149.249 85.0575 136.113 110.079 106.037 76.1923C127.311 91.799 173.385 101.217 172.566 103.583C172.519 103.72 172.463 103.855 172.399 103.988Z" fill="#E6E6E6"/>
<path d="M145.334 102.833C144.562 103.261 143.319 103.201 142.314 102.737L142.201 102.684C141.193 102.218 140.413 101.565 139.972 100.85C133.66 90.6164 120.555 97.257 107.074 77.8588C118.126 88.4062 146.479 101.996 145.516 102.716C145.46 102.757 145.4 102.796 145.334 102.833Z" fill="#E6E6E6"/>
<path d="M151.416 62.0159C151.225 62.8776 150.355 63.7698 149.342 64.2142L149.228 64.2644C148.211 64.7108 147.205 64.862 146.377 64.7185C134.537 62.6643 130.819 76.8854 107.369 74.1281C122.586 72.8391 151.548 60.6028 151.449 61.8017C151.443 61.8707 151.432 61.9422 151.416 62.0159Z" fill="#E6E6E6"/>
<path d="M32.9188 115.469C32.0688 113.964 32.369 112.122 33.5371 110.959L33.6689 110.827C34.8409 109.66 36.4003 108.984 38.0504 108.872C61.6679 107.262 48.6441 82.1822 93.6169 76.8267C68.6657 85.3905 34.6287 117.861 33.1554 115.837C33.0706 115.721 32.9915 115.598 32.9188 115.469Z" fill="#E6E6E6"/>
<path d="M127.899 115.199C127.025 115.782 125.904 115.666 125.158 114.986L125.074 114.91C124.325 114.228 123.858 113.288 123.726 112.27C121.84 97.706 107.239 106.719 102.269 79.0715C108.395 94.1991 129.273 114.05 128.111 115.038C128.044 115.095 127.973 115.149 127.899 115.199Z" fill="#E6E6E6"/>
<path d="M101.447 139.154C100.109 139.165 98.9825 138.265 98.6449 137.029L98.6068 136.89C98.2673 135.65 98.4075 134.332 98.9613 133.165C106.889 116.459 85.026 115.866 98.579 83.1884C94.8268 103.43 103.711 138.892 101.785 139.132C101.674 139.146 101.562 139.153 101.447 139.154Z" fill="#F6E332"/>
<path d="M53.011 116.323C52.1488 115.299 52.123 113.856 52.8584 112.808L52.9413 112.69C53.6789 111.637 54.7825 110.904 56.034 110.587C73.9476 106.038 60.4568 88.8117 94.2493 78.4105C76.279 88.4314 54.6569 117.9 53.2439 116.569C53.1625 116.493 53.0847 116.411 53.011 116.323Z" fill="#F6E332"/>
<path d="M63.8799 101.367C63.3346 100.857 63.3199 100.09 63.7872 99.5014L63.8399 99.435C64.3086 98.844 65.0089 98.4082 65.8025 98.1873C77.1614 95.0251 68.6306 86.4091 90.0604 79.474C78.6592 85.5528 64.9213 102.139 64.0272 101.488C63.9757 101.451 63.9265 101.41 63.8799 101.367Z" fill="#F6E332"/>
<path d="M79.7652 112.266C79.0757 111.981 78.7926 111.268 79.0233 110.552L79.0493 110.472C79.2806 109.754 79.7832 109.099 80.4486 108.613C89.9725 101.658 78.9601 96.5919 96.5876 82.5627C88.0484 92.2634 81.0112 112.623 79.9458 112.328C79.8845 112.311 79.8241 112.291 79.7652 112.266Z" fill="#E6E6E6"/>
<path d="M33.292 63.9451L35.0242 69.2803H40.63L36.0948 72.5777L37.8271 77.913L33.292 74.6156L28.7568 77.913L30.489 72.5777L25.9539 69.2803H31.5597L33.292 63.9451Z" fill="#F6E332"/>
<path d="M110.543 0L112.275 5.33528H117.881L113.346 8.63266L115.078 13.9679L110.543 10.6706L106.008 13.9679L107.74 8.63266L103.205 5.33528H108.811L110.543 0Z" fill="#E6E6E6"/>
<path d="M151.553 57.2642L153.285 62.5994H158.891L154.356 65.8968L156.088 71.2321L151.553 67.9347L147.018 71.2321L148.75 65.8968L144.215 62.5994H149.82L151.553 57.2642Z" fill="#F6E332"/>
<path d="M68.5794 115.483L70.3117 120.818H75.9175L71.3823 124.115L73.1146 129.451L68.5794 126.153L64.0442 129.451L65.7765 124.115L61.2413 120.818H66.8471L68.5794 115.483Z" fill="#F6E332"/>
<path d="M100.052 57.2642L101.784 62.5994H107.39L102.855 65.8968L104.587 71.2321L100.052 67.9347L95.5169 71.2321L97.2492 65.8968L92.714 62.5994H98.3198L100.052 57.2642Z" fill="#F6E332"/>
<path d="M143.332 0L145.064 5.33528H150.67L146.135 8.63266L147.867 13.9679L143.332 10.6706L138.797 13.9679L140.529 8.63266L135.994 5.33528H141.6L143.332 0Z" fill="#E6E6E6"/>
<path d="M30.3538 105.445L32.5506 110.606L38.1345 110.11L33.9083 113.796L36.1051 118.957L31.2964 116.074L27.0702 119.76L28.3245 114.292L23.5157 111.409L29.0996 110.913L30.3538 105.445Z" fill="#E6E6E6"/>
<path d="M78.3097 6.87327C79.3208 6.3751 80.4572 6.71115 81.1007 7.61378L81.1733 7.7156C81.8195 8.62124 82.1266 9.76696 82.0727 10.9387C81.3017 27.7102 98.0642 20.2132 98.0366 52.3041C94.5334 34.1226 76.6756 7.91833 78.0603 7.01539C78.14 6.96338 78.2232 6.91588 78.3097 6.87327Z" fill="#F6E332"/>
<path d="M63.6911 31.7325C64.1393 31.1725 64.8748 31.0953 65.4755 31.4906L65.5433 31.5351C66.1464 31.9316 66.618 32.5609 66.8903 33.2965C70.7885 43.8255 78.4159 35.0113 86.701 54.7955C79.9987 44.4669 63.0288 32.7854 63.5855 31.8825C63.6176 31.8305 63.6528 31.7804 63.6911 31.7325Z" fill="#E6E6E6"/>
<path d="M50.7883 62.337C50.8497 61.6221 51.4181 61.1487 52.1371 61.1431L52.2182 61.1424C52.9397 61.1364 53.6813 61.3971 54.3164 61.857C63.4063 68.4398 64.8491 56.8698 82.7273 68.7046C71.4181 63.8486 50.8228 63.5806 50.7839 62.5204C50.7816 62.4594 50.783 62.3981 50.7883 62.337Z" fill="#E6E6E6"/>
<path d="M304.632 91.6758C305.02 90.5859 306.102 89.9426 307.203 90.0662C307.662 90.1177 308.121 90.1586 308.582 90.1314C320.081 89.4547 334.324 96.0436 349.485 105.067C335.606 93.8276 322.902 83.8855 307.961 94.1026C306.894 94.8324 305.382 94.5747 304.761 93.4401C304.512 92.9843 304.422 92.4381 304.571 91.8747C304.588 91.8082 304.609 91.7418 304.632 91.6758Z" fill="#E6E6E6"/>
<path d="M381.326 64.718C382.274 65.3227 382.664 66.4728 382.348 67.498L382.312 67.6137C381.996 68.6429 381.306 69.5076 380.392 70.0767C367.317 78.2226 382.456 88.6474 358.257 105.474C369.975 92.926 379.613 63.8667 381.078 64.5789C381.162 64.6199 381.245 64.6662 381.326 64.718Z" fill="#E6E6E6"/>
<path d="M401.368 128.417C400.88 129.43 399.785 129.954 398.731 129.762L398.612 129.74C397.553 129.548 396.613 128.965 395.94 128.125C386.305 116.1 377.759 132.38 358.19 110.332C372.032 120.486 402.009 126.614 401.476 128.153C401.446 128.242 401.409 128.33 401.368 128.417Z" fill="#E6E6E6"/>
<path d="M383.758 127.665C383.256 127.944 382.447 127.905 381.794 127.603L381.72 127.569C381.064 127.265 380.556 126.84 380.269 126.375C376.163 119.717 367.636 124.037 358.865 111.416C366.055 118.279 384.503 127.121 383.876 127.589C383.84 127.616 383.801 127.641 383.758 127.665Z" fill="#E6E6E6"/>
<path d="M387.715 101.108C387.591 101.669 387.025 102.249 386.366 102.538L386.292 102.571C385.63 102.862 384.975 102.96 384.437 102.867C376.733 101.53 374.314 110.783 359.057 108.989C368.957 108.15 387.801 100.189 387.736 100.969C387.733 101.014 387.726 101.06 387.715 101.108Z" fill="#E6E6E6"/>
<path d="M310.617 135.887C310.063 134.908 310.259 133.709 311.019 132.952L311.105 132.867C311.867 132.107 312.882 131.667 313.955 131.594C329.322 130.547 320.848 114.229 350.109 110.745C333.875 116.316 311.729 137.443 310.771 136.126C310.715 136.05 310.664 135.971 310.617 135.887Z" fill="#E6E6E6"/>
<path d="M372.414 135.711C371.846 136.091 371.116 136.015 370.631 135.573L370.576 135.523C370.089 135.079 369.785 134.468 369.699 133.806C368.472 124.329 358.972 130.194 355.738 112.205C359.724 122.048 373.308 134.963 372.552 135.607C372.509 135.644 372.463 135.679 372.414 135.711Z" fill="#E6E6E6"/>
<path d="M355.204 151.297C354.333 151.304 353.6 150.719 353.38 149.915L353.356 149.824C353.135 149.017 353.226 148.16 353.586 147.4C358.744 136.531 344.519 136.145 353.338 114.884C350.896 128.054 356.676 151.126 355.424 151.283C355.352 151.292 355.278 151.297 355.204 151.297Z" fill="#F6E332"/>
<path d="M323.689 136.442C323.128 135.776 323.112 134.837 323.59 134.155L323.644 134.078C324.124 133.394 324.842 132.917 325.656 132.71C337.311 129.751 328.534 118.542 350.521 111.775C338.828 118.295 324.76 137.468 323.841 136.603C323.788 136.553 323.737 136.499 323.689 136.442Z" fill="#F6E332"/>
<path d="M330.761 126.711C330.406 126.38 330.397 125.881 330.701 125.498L330.735 125.454C331.04 125.07 331.495 124.786 332.012 124.643C339.402 122.585 333.852 116.979 347.795 112.467C340.377 116.422 331.438 127.214 330.857 126.79C330.823 126.766 330.791 126.74 330.761 126.711Z" fill="#F6E332"/>
<path d="M341.097 133.803C340.648 133.617 340.464 133.153 340.614 132.688L340.631 132.635C340.781 132.168 341.108 131.742 341.541 131.426C347.738 126.901 340.573 123.605 352.042 114.477C346.486 120.788 341.907 134.035 341.214 133.843C341.174 133.832 341.135 133.819 341.097 133.803Z" fill="#E6E6E6"/>
<path d="M310.859 102.363L311.986 105.835H315.634L312.683 107.98L313.81 111.451L310.859 109.306L307.909 111.451L309.036 107.98L306.085 105.835H309.732L310.859 102.363Z" fill="#F6E332"/>
<path d="M361.122 60.7582L362.249 64.2295H365.896L362.945 66.3749L364.072 69.8463L361.122 67.7008L358.171 69.8463L359.298 66.3749L356.347 64.2295H359.995L361.122 60.7582Z" fill="#E6E6E6"/>
<path d="M387.804 98.0165L388.931 101.488H392.579L389.628 103.633L390.755 107.105L387.804 104.959L384.854 107.105L385.981 103.633L383.03 101.488H386.677L387.804 98.0165Z" fill="#F6E332"/>
<path d="M333.819 135.896L334.946 139.367H338.593L335.642 141.512L336.769 144.984L333.819 142.838L330.868 144.984L331.995 141.512L329.044 139.367H332.692L333.819 135.896Z" fill="#F6E332"/>
<path d="M354.296 98.0165L355.423 101.488H359.07L356.12 103.633L357.247 107.105L354.296 104.959L351.345 107.105L352.472 103.633L349.521 101.488H353.169L354.296 98.0165Z" fill="#F6E332"/>
<path d="M382.456 60.7582L383.583 64.2295H387.23L384.279 66.3749L385.406 69.8463L382.456 67.7008L379.505 69.8463L380.632 66.3749L377.681 64.2295H381.328L382.456 60.7582Z" fill="#E6E6E6"/>
<path d="M308.948 129.365L310.377 132.723L314.01 132.4L311.26 134.798L312.69 138.156L309.561 136.28L306.811 138.678L307.627 135.121L304.499 133.245L308.132 132.922L308.948 129.365Z" fill="#E6E6E6"/>
<path d="M340.15 65.2301C340.807 64.906 341.547 65.1246 341.966 65.7119L342.013 65.7782C342.433 66.3674 342.633 67.1129 342.598 67.8753C342.096 78.7874 353.003 73.9096 352.985 94.7892C350.705 82.9596 339.086 65.9101 339.987 65.3226C340.039 65.2888 340.093 65.2579 340.15 65.2301Z" fill="#F6E332"/>
<path d="M330.638 81.4046C330.93 81.0402 331.408 80.99 331.799 81.2472L331.843 81.2762C332.236 81.5341 332.543 81.9436 332.72 82.4222C335.256 89.2728 340.219 83.5379 345.609 96.4103C341.249 89.6901 330.207 82.0897 330.569 81.5022C330.59 81.4684 330.613 81.4358 330.638 81.4046Z" fill="#E6E6E6"/>
<path d="M322.243 101.317C322.283 100.852 322.653 100.544 323.121 100.54L323.173 100.54C323.643 100.536 324.125 100.705 324.539 101.005C330.453 105.288 331.392 97.7598 343.024 105.46C335.666 102.3 322.266 102.126 322.24 101.436C322.239 101.397 322.24 101.357 322.243 101.317Z" fill="#E6E6E6"/>
</g>
<defs>
<clipPath id="clip0_793_38">
<rect width="449" height="385" fill="white"/>
</clipPath>
</defs>
</svg>
