<svg width="388" height="208" viewBox="0 0 388 208" fill="none" xmlns="http://www.w3.org/2000/svg">
<line y1="200.5" x2="388" y2="200.5" stroke="#CCCCCC"/>
<path d="M50.3609 93.597C54.8989 93.597 58.5778 89.9137 58.5778 85.3702C58.5778 80.8267 54.8989 77.1434 50.3609 77.1434C45.8229 77.1434 42.144 80.8267 42.144 85.3702C42.144 89.9137 45.8229 93.597 50.3609 93.597Z" fill="#FFB8B8"/>
<path d="M22.5964 183.955L24.677 187.494L39.3008 181.143L36.23 175.92L22.5964 183.955Z" fill="#FFB8B8"/>
<path d="M23.2199 182.372L27.3173 189.342C27.6602 189.925 27.8851 190.57 27.979 191.241C28.0728 191.911 28.0339 192.593 27.8644 193.248C27.6949 193.903 27.3982 194.519 26.9912 195.059C26.5842 195.599 26.0749 196.054 25.4923 196.398L25.3482 196.482L18.6396 185.072L23.2199 182.372Z" fill="#2F2E41"/>
<path d="M46.7031 196.704L50.8046 196.704L52.7557 180.865L46.7024 180.865L46.7031 196.704Z" fill="#FFB8B8"/>
<path d="M45.657 195.363L53.7343 195.363C54.4102 195.363 55.0799 195.496 55.7045 195.755C56.329 196.014 56.8965 196.394 57.3745 196.873C57.8524 197.351 58.2316 197.919 58.4903 198.545C58.749 199.17 58.8821 199.84 58.8821 200.517V200.684L45.6572 200.685L45.657 195.363Z" fill="#2F2E41"/>
<path d="M30.2137 187.108C29.9776 187.108 29.7448 187.052 29.5342 186.946C29.3236 186.839 29.141 186.684 29.0013 186.494L25.0456 181.115C24.925 180.951 24.8388 180.764 24.7923 180.566C24.7458 180.367 24.7399 180.162 24.7751 179.961C24.8102 179.76 24.8857 179.569 24.9969 179.398C25.108 179.227 25.2526 179.081 25.4218 178.968L43.0238 167.197L32.403 139.237L55.1152 141.114L55.8802 165.141C55.952 167.329 55.4282 169.496 54.3648 171.409C53.3014 173.322 51.7384 174.909 49.8432 176.001L30.9658 186.905C30.7373 187.038 30.4778 187.108 30.2137 187.108Z" fill="#2F2E41"/>
<path d="M46.8267 193.489C46.4372 193.488 46.0632 193.336 45.7831 193.065C45.5031 192.794 45.3389 192.425 45.325 192.035L44.4927 168.628L54.7996 168.084L53.9789 191.659C53.9668 192.033 53.8162 192.389 53.5564 192.657C53.2967 192.925 52.9464 193.087 52.5739 193.111L46.9291 193.485C46.8949 193.488 46.8607 193.489 46.8267 193.489Z" fill="#2F2E41"/>
<path d="M57.7437 145.762C55.1213 145.762 45.962 142.809 42.7823 141.756C42.3066 142.137 39.6933 144.093 36.6429 143.736C34.7608 143.515 33.1038 142.448 31.718 140.565C28.6579 136.407 32.4375 118.575 36.1471 104.348C36.8908 101.473 38.7191 98.9975 41.2477 97.4434C43.7762 95.8893 46.8081 95.3772 49.7059 96.0147C51.8062 96.4789 53.7356 97.5203 55.2774 99.0219C56.8191 100.524 57.9121 102.426 58.4335 104.515C59.1319 107.362 58.5311 110.71 58.0924 113.155C57.8862 114.304 57.7232 115.212 57.7789 115.658C57.9942 117.383 59.1903 144.428 58.4213 145.583C58.3393 145.706 58.1025 145.762 57.7437 145.762Z" fill="#F6E332"/>
<path d="M48.1504 145.81C48.5719 145.496 48.9194 145.093 49.1686 144.63C49.4177 144.166 49.5624 143.654 49.5924 143.129C49.6224 142.604 49.5371 142.078 49.3424 141.59C49.1477 141.101 48.8483 140.661 48.4654 140.301L48.6278 107.528L40.9182 108.814L43.1828 140.624C42.621 141.308 42.3294 142.175 42.3632 143.06C42.397 143.945 42.7538 144.787 43.3662 145.426C43.9785 146.065 44.8037 146.457 45.6855 146.528C46.5672 146.599 47.4443 146.343 48.1504 145.81Z" fill="#FFB8B8"/>
<path d="M49.9336 128.575H41.6295C41.2329 128.574 40.8528 128.417 40.5711 128.137C40.2894 127.858 40.1288 127.479 40.124 127.082L39.9202 104.542C39.9131 103.763 40.0604 102.99 40.3537 102.268C40.6469 101.546 41.0802 100.889 41.6285 100.336C42.1768 99.7823 42.8292 99.3434 43.548 99.0442C44.2668 98.7449 45.0377 98.5913 45.8162 98.5923C46.5946 98.5932 47.3652 98.7487 48.0833 99.0497C48.8013 99.3507 49.4527 99.7912 49.9996 100.346C50.5465 100.9 50.9782 101.558 51.2697 102.281C51.5611 103.004 51.7066 103.777 51.6976 104.556L51.439 127.085C51.4331 127.481 51.272 127.86 50.9905 128.138C50.709 128.417 50.3295 128.574 49.9336 128.575Z" fill="#F6E332"/>
<path d="M48.2688 93.5627C44.5067 93.5696 40.9575 90.5923 40.3056 86.8827C40.0722 85.4253 40.1774 83.9337 40.6131 82.5237C41.0862 80.9185 41.8975 79.4336 42.9923 78.1689C44.0871 76.9043 45.44 75.8893 46.9598 75.1925C48.4795 74.4956 50.1308 74.1331 51.8024 74.1293C53.474 74.1255 55.1269 74.4806 56.6498 75.1705C57.6562 75.6265 58.6475 76.2814 59.1084 77.2866C59.5692 78.2918 59.2808 79.6967 58.2727 80.149C57.6139 80.4445 56.7872 80.2994 56.2028 80.7236C55.3633 81.3331 55.5794 82.63 55.9542 83.5979C56.3291 84.5659 56.7531 85.7372 56.1247 86.563C55.5392 87.3326 54.3687 87.3087 53.4468 87.019C52.525 86.7294 51.615 86.2444 50.6538 86.343C49.2519 86.4869 48.2445 87.8831 48.058 89.2816C47.8716 90.6801 48.3105 92.0781 48.7439 93.4206L48.2688 93.5627Z" fill="#2F2E41"/>
<path d="M272.299 124H89.7014C88.455 123.999 87.26 123.502 86.3786 122.618C85.4972 121.735 85.0014 120.538 85 119.288V6.45185C85.001 5.5367 85.3642 4.65932 86.0099 4.0122C86.6556 3.36508 87.5311 3.00106 88.4443 3H273.496C274.425 3.00106 275.316 3.37136 275.973 4.02968C276.629 4.68799 276.999 5.58054 277 6.51152V119.288C276.999 120.538 276.503 121.735 275.621 122.618C274.74 123.502 273.545 123.999 272.299 124Z" fill="#F2F2F2"/>
<path d="M266.456 118H95.5437C93.0383 118 91 116.089 91 113.74V15.159C91 13.4172 92.5104 12 94.367 12H267.577C269.465 12 271 13.4405 271 15.2111V113.74C271 116.089 268.962 118 266.456 118Z" fill="white"/>
<path d="M277 7H84V4.64319C84.0018 3.41179 84.5022 2.23138 85.3914 1.36091C86.2806 0.49045 87.486 0.00102106 88.7431 0H272.257C273.514 0.00101067 274.719 0.490435 275.609 1.3609C276.498 2.23137 276.998 3.41179 277 4.64319V7Z" fill="#3F3D56"/>
<path d="M93 5C93.5523 5 94 4.32843 94 3.5C94 2.67157 93.5523 2 93 2C92.4477 2 92 2.67157 92 3.5C92 4.32843 92.4477 5 93 5Z" fill="white"/>
<path d="M98 5C98.5523 5 99 4.32843 99 3.5C99 2.67157 98.5523 2 98 2C97.4477 2 97 2.67157 97 3.5C97 4.32843 97.4477 5 98 5Z" fill="white"/>
<path d="M102.5 5C103.328 5 104 4.32843 104 3.5C104 2.67157 103.328 2 102.5 2C101.672 2 101 2.67157 101 3.5C101 4.32843 101.672 5 102.5 5Z" fill="white"/>
<path d="M177.13 34H143.87C143.374 34 142.898 33.7893 142.548 33.4142C142.197 33.0391 142 32.5304 142 32C142 31.4696 142.197 30.9609 142.548 30.5858C142.898 30.2107 143.374 30 143.87 30H177.13C177.626 30 178.102 30.2107 178.452 30.5858C178.803 30.9609 179 31.4696 179 32C179 32.5304 178.803 33.0391 178.452 33.4142C178.102 33.7893 177.626 34 177.13 34Z" fill="#CCCCCC"/>
<path d="M218.13 34H184.87C184.374 34 183.898 33.7893 183.548 33.4142C183.197 33.0391 183 32.5304 183 32C183 31.4696 183.197 30.9609 183.548 30.5858C183.898 30.2107 184.374 30 184.87 30H218.13C218.626 30 219.102 30.2107 219.452 30.5858C219.803 30.9609 220 31.4696 220 32C220 32.5304 219.803 33.0391 219.452 33.4142C219.102 33.7893 218.626 34 218.13 34Z" fill="#CCCCCC"/>
<path d="M218.149 41H160.851C160.36 41 159.889 40.7893 159.542 40.4142C159.195 40.0391 159 39.5304 159 39C159 38.4696 159.195 37.9609 159.542 37.5858C159.889 37.2107 160.36 37 160.851 37H218.149C218.64 37 219.111 37.2107 219.458 37.5858C219.805 37.9609 220 38.4696 220 39C220 39.5304 219.805 40.0391 219.458 40.4142C219.111 40.7893 218.64 41 218.149 41Z" fill="#CCCCCC"/>
<path d="M177.128 27H143.867C143.372 26.9993 142.897 26.7883 142.547 26.4133C142.197 26.0383 142 25.53 142 25C142 24.47 142.197 23.9617 142.547 23.5867C142.897 23.2117 143.372 23.0007 143.867 23H177.128C177.374 22.9997 177.617 23.0512 177.844 23.1515C178.071 23.2519 178.278 23.3992 178.452 23.5849C178.625 23.7707 178.763 23.9912 178.857 24.2341C178.952 24.4769 179 24.7371 179 25C179 25.2629 178.952 25.5231 178.857 25.7659C178.763 26.0087 178.625 26.2293 178.452 26.4151C178.278 26.6008 178.071 26.7481 177.844 26.8485C177.617 26.9488 177.374 27.0003 177.128 27Z" fill="#CCCCCC"/>
<path d="M195.157 27H185.843C185.354 27 184.886 26.7893 184.54 26.4142C184.194 26.0391 184 25.5304 184 25C184 24.4696 184.194 23.9609 184.54 23.5858C184.886 23.2107 185.354 23 185.843 23H195.157C195.646 23 196.114 23.2107 196.46 23.5858C196.806 23.9609 197 24.4696 197 25C197 25.5304 196.806 26.0391 196.46 26.4142C196.114 26.7893 195.646 27 195.157 27Z" fill="#CCCCCC"/>
<path d="M153.154 41H143.841C143.353 40.9993 142.884 40.7883 142.539 40.4133C142.194 40.0383 142 39.53 142 39C142 38.47 142.194 37.9617 142.539 37.5867C142.884 37.2117 143.353 37.0007 143.841 37H153.154C153.397 36.9997 153.637 37.0512 153.861 37.1515C154.084 37.2519 154.288 37.3992 154.459 37.5849C154.631 37.7707 154.767 37.9913 154.859 38.2341C154.952 38.4769 155 38.7371 155 39C155 39.2629 154.952 39.5231 154.859 39.7659C154.767 40.0087 154.631 40.2293 154.459 40.4151C154.288 40.6008 154.084 40.7481 153.861 40.8485C153.637 40.9488 153.397 41.0003 153.154 41Z" fill="#CCCCCC"/>
<path d="M177.13 101H143.87C143.374 101 142.898 100.789 142.548 100.414C142.197 100.039 142 99.5304 142 99C142 98.4696 142.197 97.9609 142.548 97.5858C142.898 97.2107 143.374 97 143.87 97H177.13C177.376 97 177.619 97.0517 177.846 97.1522C178.073 97.2528 178.279 97.4001 178.452 97.5858C178.626 97.7715 178.764 97.992 178.858 98.2346C178.952 98.4773 179 98.7374 179 99C179 99.2626 178.952 99.5227 178.858 99.7654C178.764 100.008 178.626 100.229 178.452 100.414C178.279 100.6 178.073 100.747 177.846 100.848C177.619 100.948 177.376 101 177.13 101Z" fill="#CCCCCC"/>
<path d="M218.13 101H184.87C184.374 101 183.898 100.789 183.548 100.414C183.197 100.039 183 99.5304 183 99C183 98.4696 183.197 97.9609 183.548 97.5858C183.898 97.2107 184.374 97 184.87 97H218.13C218.376 97 218.619 97.0517 218.846 97.1522C219.073 97.2528 219.279 97.4001 219.452 97.5858C219.626 97.7715 219.764 97.992 219.858 98.2346C219.952 98.4773 220 98.7374 220 99C220 99.2626 219.952 99.5227 219.858 99.7654C219.764 100.008 219.626 100.229 219.452 100.414C219.279 100.6 219.073 100.747 218.846 100.848C218.619 100.948 218.376 101 218.13 101Z" fill="#CCCCCC"/>
<path d="M218.146 108H160.851C160.36 108 159.889 107.789 159.542 107.414C159.195 107.039 159 106.53 159 106C159 105.47 159.195 104.961 159.542 104.586C159.889 104.211 160.36 104 160.851 104H218.146C218.39 104 218.631 104.051 218.856 104.152C219.08 104.252 219.285 104.399 219.457 104.585C219.629 104.771 219.766 104.991 219.859 105.234C219.952 105.477 220 105.737 220 106C220 106.263 219.952 106.523 219.859 106.766C219.766 107.009 219.629 107.229 219.457 107.415C219.285 107.601 219.08 107.748 218.856 107.848C218.631 107.949 218.39 108 218.146 108Z" fill="#CCCCCC"/>
<path d="M177.13 93H143.87C143.374 93 142.898 92.842 142.548 92.5607C142.197 92.2794 142 91.8978 142 91.5C142 91.1022 142.197 90.7206 142.548 90.4393C142.898 90.158 143.374 90 143.87 90H177.13C177.626 90 178.102 90.158 178.452 90.4393C178.803 90.7206 179 91.1022 179 91.5C179 91.8978 178.803 92.2794 178.452 92.5607C178.102 92.842 177.626 93 177.13 93Z" fill="#CCCCCC"/>
<path d="M195.157 94H185.843C185.354 94 184.886 93.7893 184.54 93.4142C184.194 93.0391 184 92.5304 184 92C184 91.4696 184.194 90.9609 184.54 90.5858C184.886 90.2107 185.354 90 185.843 90H195.157C195.646 90 196.114 90.2107 196.46 90.5858C196.806 90.9609 197 91.4696 197 92C197 92.5304 196.806 93.0391 196.46 93.4142C196.114 93.7893 195.646 94 195.157 94Z" fill="#CCCCCC"/>
<path d="M153.155 108H143.843C143.354 108 142.885 107.789 142.54 107.414C142.194 107.039 142 106.53 142 106C142 105.47 142.194 104.961 142.54 104.586C142.885 104.211 143.354 104 143.843 104H153.155C153.397 104 153.637 104.051 153.861 104.152C154.085 104.252 154.288 104.399 154.459 104.585C154.631 104.771 154.767 104.991 154.859 105.234C154.952 105.477 155 105.737 155 106C155 106.263 154.952 106.523 154.859 106.766C154.767 107.009 154.631 107.229 154.459 107.415C154.288 107.601 154.085 107.748 153.861 107.848C153.637 107.949 153.397 108 153.155 108Z" fill="#CCCCCC"/>
<path d="M168.233 80C167.524 80.0016 166.843 79.7234 166.338 79.2261L153.778 66.8447C153.532 66.6016 153.336 66.3121 153.202 65.9929C153.069 65.6737 153 65.3312 153 64.9853C153 64.6393 153.069 64.2968 153.202 63.9776C153.336 63.6585 153.532 63.3689 153.778 63.1258L166.288 50.7944C166.809 50.2832 167.511 49.9977 168.242 50C168.972 50.0023 169.673 50.2922 170.19 50.8067C170.709 51.3254 171 52.0281 171 52.7608C171 53.4935 170.709 54.1963 170.19 54.715L160.895 63.9945C160.605 64.2843 160.443 64.6769 160.443 65.0862C160.443 65.4956 160.605 65.8882 160.895 66.178L170.14 75.4071C170.518 75.7832 170.775 76.2628 170.879 76.785C170.983 77.3072 170.93 77.8485 170.726 78.3404C170.521 78.8323 170.176 79.2525 169.732 79.548C169.288 79.8434 168.767 80.0008 168.233 80Z" fill="#F6E332"/>
<path d="M188.768 80C188.235 80.0008 187.713 79.8434 187.269 79.548C186.826 79.2525 186.48 78.8323 186.276 78.3404C186.071 77.8485 186.018 77.3072 186.122 76.785C186.227 76.2628 186.484 75.7832 186.861 75.4071L196.106 66.178C196.395 65.8882 196.558 65.4956 196.558 65.0863C196.558 64.6769 196.395 64.2843 196.106 63.9945L186.811 54.715C186.554 54.4583 186.35 54.1537 186.211 53.8184C186.072 53.4831 186 53.1237 186 52.7608C186 52.3979 186.072 52.0385 186.211 51.7032C186.35 51.368 186.554 51.0633 186.811 50.8067C187.329 50.2922 188.029 50.0023 188.76 50C189.49 49.9977 190.192 50.2832 190.713 50.7944L203.222 63.1258C203.468 63.3689 203.664 63.6585 203.798 63.9776C203.931 64.2968 204 64.6393 204 64.9853C204 65.3312 203.931 65.6737 203.798 65.9929C203.664 66.3121 203.468 66.6016 203.222 66.8447L190.663 79.2261C190.158 79.7234 189.477 80.0015 188.768 80Z" fill="#F6E332"/>
<g clip-path="url(#clip0_861_230)">
<path d="M313.638 201.009C314.409 204.731 318.806 200.156 318.806 200.156L324.051 199.536C324.051 199.536 327.368 199.614 329.528 201.32C331.688 203.026 333.154 200.777 333.154 200.777C335.587 201.592 338.569 201.589 341.151 201.328C344.871 200.951 347.853 198.065 348.365 194.341C351.249 173.336 335.391 163.014 335.391 163.014L330.762 150.452C330.762 150.452 332.228 146.808 332.691 143.551C333.154 140.294 329.76 137.193 325.594 134.091C323.772 132.734 321.684 132.832 319.911 133.371C317.922 133.975 316.188 135.219 314.906 136.863C313.844 138.224 312.023 140.153 310.021 140.487C309.328 140.601 308.645 140.877 308.006 141.38C307.346 141.899 307.054 142.766 307.045 143.844C306.996 148.553 310.864 154.221 314.255 155.105C318.42 156.19 316.183 166.503 316.183 166.503C309.395 176.119 314.177 186.819 314.177 186.819L312.943 195.504C312.943 195.504 312.866 197.287 313.638 201.009Z" fill="#3F3D56"/>
<path d="M336.316 181.004L334.619 202.25C334.619 202.25 336.934 208.143 329.065 207.833C321.197 207.523 325.825 195.426 325.825 195.426L328.294 179.608" fill="#3F3D56"/>
<path d="M329.651 208C329.458 208 329.261 207.996 329.059 207.988C327.317 207.919 326.035 207.275 325.247 206.071C322.994 202.631 325.5 195.851 325.675 195.386L328.141 179.584C328.155 179.499 328.233 179.442 328.318 179.455C328.402 179.468 328.459 179.547 328.446 179.632L325.978 195.451C325.976 195.461 325.973 195.472 325.969 195.482C325.942 195.552 323.308 202.547 325.505 205.901C326.235 207.016 327.435 207.614 329.071 207.678C331.64 207.779 333.368 207.228 334.208 206.039C335.307 204.484 334.484 202.329 334.476 202.307C334.467 202.285 334.464 202.261 334.465 202.238L336.162 180.991C336.169 180.906 336.242 180.844 336.329 180.849C336.414 180.856 336.477 180.931 336.47 181.016L334.776 202.228C334.888 202.532 335.591 204.617 334.461 206.217C333.625 207.401 332.008 208 329.651 208Z" fill="#2F2E41"/>
<path d="M322.277 185.346C322.277 185.346 322.74 205.042 313.02 204.576C303.301 204.111 312.095 197.908 312.095 197.908L312.943 195.504" fill="#3F3D56"/>
<path d="M313.354 204.739C313.241 204.739 313.128 204.737 313.013 204.731C310.238 204.598 308.67 203.973 308.352 202.874C307.781 200.892 311.506 198.14 311.965 197.81L312.798 195.452C312.826 195.371 312.914 195.329 312.995 195.358C313.075 195.386 313.117 195.475 313.089 195.556L312.24 197.96C312.229 197.99 312.209 198.016 312.183 198.035C312.143 198.063 308.114 200.932 308.649 202.787C308.925 203.746 310.399 204.296 313.028 204.421C314.779 204.506 316.313 203.914 317.587 202.664C322.362 197.978 322.126 185.475 322.123 185.35C322.121 185.264 322.188 185.193 322.273 185.191C322.354 185.191 322.429 185.257 322.431 185.342C322.444 185.861 322.674 198.105 317.802 202.886C316.549 204.117 315.053 204.739 313.354 204.739Z" fill="#2F2E41"/>
<path d="M307.045 143.844C308.153 143.977 309.887 143.971 311.323 143.008C312.861 141.977 311.264 141.015 310.021 140.487C309.328 140.601 308.645 140.877 308.006 141.38C307.346 141.899 307.054 142.766 307.045 143.844Z" fill="#2F2E41"/>
<path d="M324.946 141.056C324.946 141.056 322.254 134.105 326.109 134.008C329.965 133.911 333.011 139.934 333.011 139.934C333.011 139.934 342.688 157.666 329.429 156.71C316.17 155.754 322.506 148.675 322.506 148.675C322.506 148.675 325.53 144.938 324.946 141.056Z" fill="#2F2E41"/>
<path d="M339.716 192.994C341.424 193.758 343.208 194.537 345.075 194.462C346.943 194.388 348.908 193.179 349.199 191.323C349.349 190.365 349.051 189.338 349.416 188.44C349.907 187.232 351.491 186.766 352.722 187.18C353.953 187.594 354.857 188.661 355.505 189.792C356.719 191.907 357.205 194.682 355.904 196.744C354.776 198.531 352.638 199.338 350.648 200.031C347.999 200.954 345.04 201.869 342.473 200.736C339.89 199.596 338.484 196.303 339.44 193.636" fill="#3F3D56"/>
<path d="M334.02 159.507C334.02 159.507 337.414 161.213 335.717 163.074C334.02 164.935 323.529 170.208 319.672 169.432C315.815 168.657 314.889 166.331 314.889 165.71C314.889 165.09 315.18 157.586 316.414 157.896C317.649 158.206 325.38 165.245 334.02 159.507Z" fill="#F6E332"/>
</g>
<defs>
<clipPath id="clip0_861_230">
<rect width="137" height="75" fill="white" transform="translate(251 133)"/>
</clipPath>
</defs>
</svg>
