<svg width="301" height="257" viewBox="0 0 301 257" fill="none" xmlns="http://www.w3.org/2000/svg">
<g clip-path="url(#clip0_1252_6997)">
<path d="M41.7617 251.654C41.1646 251.692 40.8346 250.95 41.2863 250.518L41.3313 250.34L41.3134 250.297C40.7096 248.858 38.6632 248.868 38.0645 250.309C37.5331 251.588 36.8566 252.869 36.69 254.222C36.6153 254.819 36.6489 255.427 36.7815 256.013C35.5364 253.294 34.8812 250.326 34.8812 247.341C34.8812 246.591 34.9222 245.841 35.0062 245.093C35.0753 244.481 35.1705 243.873 35.2937 243.27C35.9601 240.013 37.4031 236.911 39.4844 234.319C40.485 233.773 41.3194 232.918 41.8234 231.894C42.0045 231.525 42.1464 231.127 42.2136 230.722C42.0997 230.737 41.7842 229.004 41.8701 228.898C41.7114 228.657 41.4274 228.538 41.2541 228.303C40.3922 227.135 39.2046 227.339 38.5847 228.926C37.2604 229.594 37.2475 230.702 38.0601 231.767C38.5771 232.445 38.6482 233.362 39.1018 234.088C39.0551 234.148 39.0066 234.205 38.9599 234.265C38.1041 235.362 37.3639 236.541 36.74 237.78C36.9163 236.403 36.656 234.745 36.2121 233.676C35.7069 232.457 34.7598 231.432 33.9259 230.378C32.9242 229.114 30.87 229.666 30.6935 231.269L30.6885 231.316C30.8124 231.385 30.9338 231.46 31.0523 231.538C31.7284 231.985 31.4948 233.032 30.6936 233.156L30.6755 233.159C30.7203 233.605 30.7968 234.047 30.9088 234.482C29.8389 238.617 32.1487 240.123 35.4467 240.19C35.5195 240.228 35.5905 240.265 35.6633 240.3C35.3292 241.241 35.0622 242.205 34.8644 243.183C34.687 244.047 34.5638 244.92 34.4947 245.796C34.4089 246.903 34.4163 248.015 34.5097 249.119L34.5041 249.08C34.267 247.864 33.6062 246.727 32.6467 245.94C31.2174 244.767 29.198 244.335 27.6559 243.391C26.9137 242.937 25.9625 243.524 26.092 244.384L26.0983 244.425C26.3279 244.518 26.5519 244.627 26.7685 244.748C26.8923 244.818 27.0137 244.892 27.1322 244.97C27.8084 245.417 27.5747 246.465 26.7735 246.588L26.7554 246.591L26.7181 246.597C27.1119 247.531 27.6607 248.399 28.3477 249.147C29.0166 252.757 31.8898 253.099 34.9633 252.048H34.9651C35.3012 253.511 35.7921 254.94 36.4231 256.302H41.6311C41.6498 256.244 41.6666 256.184 41.6834 256.126C41.2018 256.156 40.7165 256.128 40.2423 256.041C40.6287 255.567 41.0151 255.089 41.4015 254.615C41.4109 254.606 41.4184 254.596 41.4258 254.587C41.6218 254.345 41.8197 254.104 42.0157 253.861C42.0279 253.117 41.9386 252.375 41.7617 251.654Z" fill="#F2F2F2"/>
<path d="M263.437 251.654C264.034 251.692 264.364 250.95 263.913 250.518L263.868 250.34L263.886 250.297C264.489 248.858 266.536 248.868 267.134 250.309C267.666 251.588 268.342 252.869 268.509 254.222C268.584 254.819 268.55 255.427 268.417 256.013C269.663 253.294 270.318 250.326 270.318 247.341C270.318 246.591 270.277 245.841 270.193 245.093C270.124 244.481 270.028 243.873 269.905 243.27C269.239 240.013 267.796 236.911 265.714 234.319C264.714 233.773 263.88 232.918 263.375 231.894C263.194 231.525 263.053 231.127 262.985 230.722C263.099 230.737 263.415 229.004 263.329 228.898C263.487 228.657 263.771 228.538 263.945 228.303C264.807 227.135 265.994 227.339 266.614 228.926C267.939 229.594 267.951 230.702 267.139 231.767C266.622 232.445 266.551 233.362 266.097 234.088C266.144 234.148 266.192 234.205 266.239 234.265C267.095 235.362 267.835 236.541 268.459 237.78C268.283 236.403 268.543 234.745 268.987 233.676C269.492 232.457 270.439 231.432 271.273 230.378C272.275 229.114 274.329 229.666 274.505 231.269L274.51 231.316C274.386 231.385 274.265 231.46 274.147 231.538C273.47 231.985 273.704 233.032 274.505 233.156L274.523 233.159C274.479 233.605 274.402 234.047 274.29 234.482C275.36 238.617 273.05 240.123 269.752 240.19C269.679 240.228 269.608 240.265 269.536 240.3C269.87 241.241 270.137 242.205 270.335 243.183C270.512 244.047 270.635 244.92 270.704 245.796C270.79 246.903 270.783 248.015 270.689 249.119L270.695 249.08C270.932 247.864 271.593 246.727 272.552 245.94C273.982 244.767 276.001 244.335 277.543 243.391C278.285 242.937 279.236 243.524 279.107 244.384L279.101 244.425C278.871 244.518 278.647 244.627 278.43 244.748C278.307 244.818 278.185 244.892 278.067 244.97C277.391 245.417 277.624 246.465 278.425 246.588L278.444 246.591L278.481 246.597C278.087 247.531 277.538 248.399 276.851 249.147C276.182 252.757 273.309 253.099 270.236 252.048H270.234C269.898 253.511 269.407 254.94 268.776 256.302H263.568C263.549 256.244 263.532 256.184 263.515 256.126C263.997 256.156 264.482 256.128 264.957 256.041C264.57 255.567 264.184 255.089 263.797 254.615C263.788 254.606 263.781 254.596 263.773 254.587C263.577 254.345 263.379 254.104 263.183 253.861C263.171 253.117 263.26 252.375 263.437 251.654Z" fill="#F2F2F2"/>
<path d="M162.607 253.859L167.078 253.859L169.205 236.625L162.606 236.626L162.607 253.859Z" fill="#FFB6B6"/>
<path d="M177.924 253.758C178.063 253.992 178.137 254.748 178.137 255.021C178.137 255.858 177.457 256.537 176.619 256.537H162.775C162.203 256.537 161.74 256.074 161.74 255.503V254.927C161.74 254.927 161.055 253.195 162.465 251.061C162.465 251.061 164.217 252.732 166.836 250.115L167.608 248.717L173.198 252.803L176.296 253.184C176.974 253.267 177.575 253.171 177.924 253.758Z" fill="#2F2E41"/>
<path d="M131.733 253.859L136.204 253.859L138.331 236.625L131.732 236.626L131.733 253.859Z" fill="#FFB6B6"/>
<path d="M147.05 253.758C147.189 253.992 147.263 254.748 147.263 255.021C147.263 255.858 146.583 256.537 145.745 256.537H131.901C131.329 256.537 130.866 256.074 130.866 255.503V254.927C130.866 254.927 130.181 253.195 131.591 251.061C131.591 251.061 133.343 252.732 135.962 250.115L136.734 248.717L142.324 252.803L145.422 253.184C146.1 253.267 146.701 253.171 147.05 253.758Z" fill="#2F2E41"/>
<path d="M0.999675 256.901H300C300.276 256.901 300.5 256.678 300.5 256.402C300.5 256.126 300.276 255.903 300 255.903H0.999675C0.72371 255.903 0.5 256.126 0.5 256.402C0.5 256.678 0.72371 256.901 0.999675 256.901Z" fill="#E6E6E6"/>
<path d="M163.944 172.468L165.601 174.646C165.601 174.646 165.751 175.663 168.264 183.949L169.643 246.23H161.302L150.156 196.398L138.587 247.229L131.358 247.655L131.697 189.88C131.697 189.88 130.936 187.869 131.583 185.513C134.062 176.496 133.919 178.873 134.02 175.786C134.149 171.872 163.944 172.468 163.944 172.468Z" fill="#2F2E41"/>
<path d="M150.798 120.132C155.631 120.132 159.549 116.216 159.549 111.386C159.549 106.556 155.631 102.64 150.798 102.64C145.965 102.64 142.047 106.556 142.047 111.386C142.047 116.216 145.965 120.132 150.798 120.132Z" fill="#FEB8B8"/>
<path d="M146.093 121.777L141.251 124.452C137.211 124.744 134.314 125.818 131.739 127.114L134.578 151.991L134.062 176.496C134.062 176.496 150.163 187.52 165.602 174.646V141.349L164.877 128.108C164.793 126.564 163.427 125.366 161.893 125.569C161.017 125.685 160.008 125.663 158.978 125.32L155.773 121.603L146.093 121.777Z" fill="#F6E332"/>
<path d="M173.471 101.254C173.959 102.355 174.158 103.474 174.093 104.445L179.408 114.637L174.481 117.022L169.621 106.427C168.858 105.823 168.161 104.924 167.673 103.823C166.557 101.309 166.951 98.6953 168.552 97.9859C170.153 97.2764 172.355 98.7396 173.471 101.254Z" fill="#FFB6B6"/>
<path d="M158.978 125.32L160.444 125.99C161.789 124.545 165.84 124.772 167.806 124.959L176.445 125.782L172.411 113.169L178.484 110.727L185.741 124.685C186.18 127.052 185.195 129.458 183.222 130.84L164.706 141.348L162.554 126.954L158.978 125.32Z" fill="#F6E332"/>
<path d="M114.204 184.483C114.296 183.282 114.652 182.202 115.169 181.378L115.325 169.887L120.794 170.121L120.048 181.753C120.433 182.646 120.62 183.768 120.528 184.968C120.317 187.711 118.731 189.825 116.984 189.691C115.238 189.557 113.993 187.225 114.204 184.483Z" fill="#FFB6B6"/>
<path d="M135.792 130.257L133.279 126.442C133.279 126.442 129.18 127.224 127.002 130.312C124.824 133.401 116.592 152.344 116.592 152.344L115.011 173.728L121.134 172.468L124.089 156.25L133.589 143.276L135.792 130.257Z" fill="#F6E332"/>
<path d="M159.548 112.546C159.877 110.879 154.805 108.452 154.814 108.455C155.601 108.706 154.363 110.148 153.554 109.978C153.554 109.978 152.366 110.582 153.013 111.102C150.781 110.911 147.798 108.791 145.566 108.599C144.668 108.521 144.321 110.685 143.756 111.386C142.903 112.46 142.047 110.324 142.362 113.169H142.235C141.769 112.046 141.303 110.904 141.151 109.698C141.004 108.492 141.21 107.192 141.98 106.251C142.235 105.932 141.233 104.883 141.502 104.579C142.361 103.593 144.026 103.054 144.791 102C145.804 100.603 146.957 101.589 149.066 100.415C149.618 100.107 150.577 99.9966 151.188 100.156L152.616 100.529C152.338 100.946 152.682 101.496 153.179 101.429L155.04 101.176C155.741 101.402 156.408 101.735 156.722 102.377C156.914 102.76 156.948 103.206 157.095 103.608C157.365 104.348 158.003 104.883 158.513 105.481C159.885 105.88 159.958 106.905 159.958 108.623C161.237 109.34 159.903 110.942 159.548 112.546Z" fill="#2F2E41"/>
<path d="M16.3491 31.7083C16.7474 30.5905 17.8582 29.9307 18.9892 30.0574C19.4605 30.1103 19.9314 30.1522 20.4049 30.1244C32.2136 29.4303 46.8397 36.1877 62.4098 45.4416C48.1563 33.9151 35.111 23.7187 19.768 34.1971C18.672 34.9456 17.1193 34.6812 16.4818 33.5177C16.2257 33.0502 16.1332 32.49 16.2859 31.9122C16.304 31.844 16.325 31.776 16.3491 31.7083Z" fill="#E6E6E6"/>
<path d="M95.1073 4.06107C96.0807 4.68126 96.4812 5.86074 96.1567 6.9122L96.1201 7.03084C95.795 8.08637 95.0868 8.97317 94.1487 9.55686C80.7214 17.911 96.2674 28.6024 71.417 45.8596C83.4507 32.9904 93.3487 3.18807 94.8524 3.91846C94.939 3.96053 95.0241 4.00803 95.1073 4.06107Z" fill="#E6E6E6"/>
<path d="M115.688 69.3887C115.188 70.4282 114.063 70.9657 112.98 70.7685L112.858 70.7462C111.771 70.5488 110.806 69.9514 110.114 69.0897C100.22 56.7569 91.4438 73.453 71.3486 50.8413C85.5628 61.2553 116.347 67.5399 115.8 69.1187C115.768 69.2097 115.731 69.2998 115.688 69.3887Z" fill="#E6E6E6"/>
<path d="M97.605 68.6182C97.0897 68.904 96.2586 68.8639 95.5877 68.5539L95.512 68.5189C94.8385 68.208 94.3172 67.7717 94.0226 67.2946C89.8055 60.4663 81.0494 64.8973 72.042 51.9534C79.426 58.9914 98.3702 68.0595 97.7267 68.5399C97.6896 68.5676 97.649 68.5937 97.605 68.6182Z" fill="#E6E6E6"/>
<path d="M101.668 41.3816C101.541 41.9566 100.96 42.552 100.283 42.8485L100.206 42.882C99.5269 43.1799 98.8545 43.2808 98.3018 43.185C90.3908 41.8143 87.9063 51.3037 72.2383 49.4638C82.4056 48.6037 101.757 40.4387 101.69 41.2387C101.686 41.2848 101.679 41.3324 101.668 41.3816Z" fill="#E6E6E6"/>
<path d="M22.4949 77.0499C21.927 76.0455 22.1276 74.8162 22.9081 74.0402L22.9961 73.9526C23.7792 73.1733 24.8211 72.7227 25.9236 72.6476C41.7037 71.5734 33.0018 54.8382 63.0504 51.2646C46.3793 56.9791 23.6374 78.646 22.653 77.2955C22.5963 77.2177 22.5435 77.1358 22.4949 77.0499Z" fill="#E6E6E6"/>
<path d="M85.9557 76.8694C85.372 77.2586 84.6228 77.181 84.1245 76.7276L84.0682 76.6765C83.5678 76.2217 83.2557 75.5943 83.1676 74.9153C81.9076 65.1968 72.1521 71.2108 68.8311 52.7625C72.9242 62.8567 86.874 76.1025 86.0976 76.7623C86.0529 76.8003 86.0056 76.8361 85.9557 76.8694Z" fill="#E6E6E6"/>
<path d="M68.2821 92.8542C67.388 92.8615 66.6354 92.2608 66.4098 91.4364L66.3843 91.3434C66.1575 90.5161 66.2511 89.6367 66.6212 88.8578C71.9179 77.7099 57.3103 77.3144 66.3658 55.5095C63.8587 69.0162 69.7945 92.6791 68.508 92.8393C68.4339 92.8485 68.3585 92.8535 68.2821 92.8542Z" fill="#F6E332"/>
<path d="M35.9193 77.6196C35.3432 76.9361 35.326 75.9737 35.8173 75.2742L35.8727 75.1952C36.3655 74.4929 37.1029 74.004 37.9392 73.7919C49.9081 70.757 40.8942 59.262 63.4728 52.3215C51.4659 59.0082 37.019 78.672 36.0749 77.784C36.0205 77.7328 35.9686 77.678 35.9193 77.6196Z" fill="#F6E332"/>
<path d="M43.1809 67.6398C42.8166 67.2997 42.8068 66.7878 43.119 66.3951L43.1542 66.3508C43.4673 65.9564 43.9352 65.6656 44.4655 65.5182C52.0549 63.4081 46.3551 57.6589 60.6734 53.0312C53.0557 57.0875 43.8767 68.1548 43.2793 67.7209C43.2449 67.696 43.212 67.6689 43.1809 67.6398Z" fill="#F6E332"/>
<path d="M53.7955 74.9125C53.3348 74.722 53.1457 74.2463 53.2998 73.7689L53.3172 73.7151C53.4717 73.2359 53.8075 72.7993 54.2521 72.475C60.6155 67.834 53.2576 64.4534 65.0354 55.092C59.33 61.565 54.628 75.1503 53.9162 74.9539C53.8752 74.9426 53.8349 74.9288 53.7955 74.9125Z" fill="#E6E6E6"/>
<path d="M22.7438 42.6689L23.9012 46.2291H27.6467L24.6165 48.4293L25.774 51.9894L22.7438 49.7892L19.7136 51.9894L20.871 48.4293L17.8408 46.2291H21.5863L22.7438 42.6689Z" fill="#F6E332"/>
<path d="M74.359 0L75.5164 3.56011H79.262L76.2318 5.76037L77.3892 9.32047L74.359 7.12021L71.3288 9.32047L72.4862 5.76037L69.4561 3.56011H73.2016L74.359 0Z" fill="#E6E6E6"/>
<path d="M101.76 38.2109L102.918 41.771H106.663L103.633 43.9713L104.791 47.5314L101.76 45.3311L98.7302 47.5314L99.8876 43.9713L96.8574 41.771H100.603L101.76 38.2109Z" fill="#F6E332"/>
<path d="M46.3209 77.0588L47.4784 80.6189H51.2239L48.1937 82.8192L49.3511 86.3793L46.3209 84.179L43.2907 86.3793L44.4482 82.8192L41.418 80.6189H45.1635L46.3209 77.0588Z" fill="#F6E332"/>
<path d="M67.3502 38.2109L68.5077 41.771H72.2532L69.223 43.9713L70.3804 47.5314L67.3502 45.3311L64.32 47.5314L65.4775 43.9713L62.4473 41.771H66.1928L67.3502 38.2109Z" fill="#F6E332"/>
<path d="M96.2672 0L97.4246 3.56011H101.17L98.14 5.76037L99.2974 9.32047L96.2672 7.12021L93.237 9.32047L94.3944 5.76037L91.3643 3.56011H95.1098L96.2672 0Z" fill="#E6E6E6"/>
<path d="M20.7808 70.3611L22.2486 73.805L25.9794 73.4741L23.1557 75.9335L24.6235 79.3774L21.4106 77.4534L18.5869 79.9128L19.4249 76.2644L16.2119 74.3404L19.9428 74.0095L20.7808 70.3611Z" fill="#E6E6E6"/>
<path d="M52.8222 4.58639C53.4978 4.25397 54.2571 4.47821 54.687 5.08051L54.7355 5.14846C55.1673 5.75277 55.3725 6.51728 55.3365 7.29919C54.8213 18.4904 66.0212 13.4878 66.0028 34.9013C63.6621 22.7692 51.7304 5.28373 52.6555 4.68122C52.7088 4.64652 52.7644 4.61482 52.8222 4.58639Z" fill="#F6E332"/>
<path d="M43.0551 21.1743C43.3545 20.8007 43.846 20.7491 44.2473 21.0129L44.2926 21.0427C44.6956 21.3072 45.0107 21.7271 45.1926 22.218C47.7972 29.2437 52.8934 23.3622 58.4291 36.5637C53.951 29.6717 42.6126 21.8769 42.9845 21.2744C43.0059 21.2397 43.0294 21.2063 43.0551 21.1743Z" fill="#E6E6E6"/>
<path d="M34.4343 41.596C34.4753 41.119 34.8551 40.8031 35.3355 40.7993L35.3897 40.7989C35.8718 40.7949 36.3673 40.9688 36.7916 41.2757C42.865 45.6683 43.8291 37.9478 55.7744 45.845C48.2181 42.6047 34.4574 42.4258 34.4313 41.7184C34.4299 41.6776 34.4308 41.6368 34.4343 41.596Z" fill="#E6E6E6"/>
<path d="M204.04 61.173C204.3 60.4458 205.022 60.0165 205.758 60.0989C206.065 60.1333 206.371 60.1606 206.679 60.1425C214.363 59.6909 223.879 64.0875 234.009 70.1085C224.735 62.6089 216.248 55.9747 206.265 62.7924C205.552 63.2794 204.542 63.1074 204.127 62.3503C203.96 62.0462 203.9 61.6817 203.999 61.3057C204.011 61.2613 204.025 61.2171 204.04 61.173Z" fill="#E6E6E6"/>
<path d="M255.284 43.1846C255.917 43.5881 256.178 44.3556 255.967 45.0397L255.943 45.1169C255.731 45.8036 255.271 46.3806 254.66 46.7604C245.924 52.196 256.039 59.1521 239.87 70.3804C247.7 62.0072 254.14 42.6166 255.118 43.0918C255.174 43.1192 255.23 43.1501 255.284 43.1846Z" fill="#E6E6E6"/>
<path d="M268.674 85.6895C268.349 86.3658 267.617 86.7155 266.912 86.5872L266.833 86.5727C266.125 86.4443 265.497 86.0556 265.048 85.495C258.61 77.4707 252.9 88.3339 239.825 73.6218C249.073 80.3976 269.103 84.4866 268.747 85.5138C268.726 85.573 268.702 85.6316 268.674 85.6895Z" fill="#E6E6E6"/>
<path d="M256.909 85.188C256.573 85.3739 256.033 85.3478 255.596 85.1462L255.547 85.1234C255.109 84.9211 254.769 84.6372 254.578 84.3268C251.834 79.884 246.137 82.7671 240.276 74.3452C245.081 78.9244 257.406 84.8245 256.988 85.137C256.964 85.155 256.937 85.1721 256.909 85.188Z" fill="#E6E6E6"/>
<path d="M259.552 67.467C259.47 67.8411 259.092 68.2284 258.651 68.4214L258.601 68.4432C258.159 68.637 257.722 68.7026 257.362 68.6403C252.215 67.7485 250.599 73.9227 240.404 72.7256C247.02 72.1659 259.61 66.8535 259.567 67.374C259.564 67.404 259.56 67.435 259.552 67.467Z" fill="#E6E6E6"/>
<path d="M208.039 90.6741C207.669 90.0206 207.8 89.2208 208.307 88.7158L208.365 88.6589C208.874 88.1518 209.552 87.8586 210.269 87.8098C220.537 87.1109 214.875 76.2223 234.426 73.8972C223.579 77.6153 208.782 91.7126 208.141 90.8339C208.105 90.7833 208.07 90.73 208.039 90.6741Z" fill="#E6E6E6"/>
<path d="M249.329 90.5567C248.95 90.8099 248.462 90.7595 248.138 90.4645L248.101 90.4312C247.776 90.1353 247.573 89.7271 247.515 89.2853C246.696 82.9621 240.348 86.875 238.188 74.8718C240.851 81.4395 249.927 90.0578 249.422 90.4871C249.393 90.5118 249.362 90.5351 249.329 90.5567Z" fill="#E6E6E6"/>
<path d="M237.83 100.957C237.249 100.962 236.759 100.571 236.612 100.035L236.596 99.9741C236.448 99.4358 236.509 98.8636 236.75 98.3568C240.196 91.1036 230.692 90.8463 236.584 76.6592C234.952 85.4471 238.814 100.843 237.977 100.947C237.929 100.953 237.88 100.957 237.83 100.957Z" fill="#F6E332"/>
<path d="M216.774 91.0446C216.399 90.5999 216.388 89.9737 216.708 89.5186L216.744 89.4672C217.064 89.0103 217.544 88.6921 218.088 88.5542C225.876 86.5795 220.011 79.1005 234.701 74.5847C226.889 78.9353 217.489 91.7293 216.875 91.1516C216.84 91.1183 216.806 91.0826 216.774 91.0446Z" fill="#F6E332"/>
<path d="M221.498 84.5515C221.261 84.3302 221.255 83.9972 221.458 83.7416L221.481 83.7128C221.685 83.4562 221.989 83.267 222.334 83.1711C227.272 81.7982 223.563 78.0576 232.879 75.0466C227.923 77.6858 221.951 84.8866 221.562 84.6043C221.54 84.588 221.518 84.5705 221.498 84.5515Z" fill="#F6E332"/>
<path d="M228.404 89.2834C228.104 89.1595 227.981 88.8499 228.081 88.5394L228.093 88.5043C228.193 88.1925 228.412 87.9085 228.701 87.6975C232.841 84.6779 228.054 82.4783 235.717 76.3875C232.005 80.599 228.945 89.4381 228.482 89.3103C228.456 89.303 228.429 89.294 228.404 89.2834Z" fill="#E6E6E6"/>
<path d="M208.201 68.3044L208.954 70.6208H211.391L209.419 72.0524L210.172 74.3687L208.201 72.9371L206.229 74.3687L206.982 72.0524L205.011 70.6208H207.448L208.201 68.3044Z" fill="#F6E332"/>
<path d="M241.784 40.5425L242.537 42.8588H244.974L243.002 44.2904L243.755 46.6067L241.784 45.1752L239.812 46.6067L240.565 44.2904L238.594 42.8588H241.031L241.784 40.5425Z" fill="#E6E6E6"/>
<path d="M259.612 65.4041L260.365 67.7204H262.802L260.83 69.152L261.583 71.4683L259.612 70.0367L257.64 71.4683L258.393 69.152L256.422 67.7204H258.859L259.612 65.4041Z" fill="#F6E332"/>
<path d="M223.542 90.6799L224.295 92.9963H226.732L224.76 94.4278L225.513 96.7442L223.542 95.3126L221.57 96.7442L222.323 94.4278L220.352 92.9963H222.789L223.542 90.6799Z" fill="#F6E332"/>
<path d="M237.223 65.4041L237.976 67.7204H240.413L238.442 69.152L239.195 71.4683L237.223 70.0367L235.252 71.4683L236.005 69.152L234.033 67.7204H236.47L237.223 65.4041Z" fill="#F6E332"/>
<path d="M256.039 40.5425L256.792 42.8588H259.229L257.257 44.2904L258.01 46.6067L256.039 45.1752L254.067 46.6067L254.82 44.2904L252.849 42.8588H255.286L256.039 40.5425Z" fill="#E6E6E6"/>
<path d="M206.924 86.322L207.879 88.5628L210.306 88.3475L208.469 89.9476L209.424 92.1884L207.334 90.9366L205.496 92.5367L206.042 90.1629L203.951 88.9111L206.379 88.6958L206.924 86.322Z" fill="#E6E6E6"/>
<path d="M227.772 43.5265C228.211 43.3102 228.705 43.4561 228.985 43.848L229.016 43.8922C229.297 44.2854 229.431 44.7828 229.407 45.2915C229.072 52.5729 236.359 49.3181 236.347 63.2505C234.824 55.3569 227.061 43.9802 227.663 43.5882C227.698 43.5656 227.734 43.545 227.772 43.5265Z" fill="#F6E332"/>
<path d="M221.416 54.3193C221.611 54.0762 221.931 54.0427 222.192 54.2143L222.221 54.2336C222.483 54.4058 222.688 54.679 222.807 54.9984C224.501 59.5696 227.817 55.7428 231.419 64.3323C228.505 59.848 221.128 54.7764 221.37 54.3844C221.384 54.3619 221.399 54.3401 221.416 54.3193Z" fill="#E6E6E6"/>
<path d="M215.807 67.6063C215.834 67.296 216.081 67.0904 216.393 67.088L216.429 67.0877C216.742 67.0851 217.065 67.1982 217.341 67.3979C221.292 70.2559 221.92 65.2327 229.692 70.3709C224.775 68.2626 215.822 68.1462 215.805 67.6859C215.804 67.6594 215.805 67.6329 215.807 67.6063Z" fill="#E6E6E6"/>
</g>
<defs>
<clipPath id="clip0_1252_6997">
<rect width="300" height="256.901" fill="white" transform="translate(0.5)"/>
</clipPath>
</defs>
</svg>
