<svg width="1440" height="550" viewBox="0 0 1440 550" fill="none" xmlns="http://www.w3.org/2000/svg">
<mask id="mask0_1206_47" style="mask-type:alpha" maskUnits="userSpaceOnUse" x="0" y="0" width="1440" height="550">
<g style="mix-blend-mode:exclusion" opacity="0.97">
<rect width="1440" height="550" fill="white"/>
</g>
</mask>
<g mask="url(#mask0_1206_47)">
<path d="M684.103 257L839.669 132L644.214 206L684.103 257Z" fill="#23323D"/>
<path d="M839.669 132L642.219 200L644.214 206L839.669 132Z" fill="#283944"/>
<path d="M600.336 -2L563.439 151L642.219 200L600.336 -2Z" fill="#2D404C"/>
<path d="M642.219 200L563.439 151L644.214 206L642.219 200Z" fill="#151E27"/>
<path d="M644.214 206L541.5 449L684.103 257L644.214 206Z" fill="#23323D"/>
<path d="M684.103 257L894.517 275L839.669 132L684.103 257Z" fill="#1E2B35"/>
<path d="M1033.13 3L818.728 -28L839.669 132L1033.13 3Z" fill="#23323D"/>
<path d="M839.669 132L674.131 -31L642.219 200L839.669 132Z" fill="#101820"/>
<path d="M818.728 -28L674.131 -31L839.669 132L818.728 -28Z" fill="#3C5663"/>
<path d="M674.131 -31L600.336 -2L642.219 200L674.131 -31Z" fill="#415E6B"/>
<path d="M894.517 275L1001.22 135L839.669 132L894.517 275Z" fill="#324753"/>
<path d="M541.5 449L784.822 440L684.103 257L541.5 449Z" fill="#415E6B"/>
<path d="M684.103 257L784.822 440L894.517 275L684.103 257Z" fill="#23323D"/>
<path d="M894.517 275L1006.21 245L1001.22 135L894.517 275Z" fill="#415E6B"/>
<path d="M926.428 445L1006.21 245L894.517 275L926.428 445Z" fill="#374F5B"/>
<path d="M600.336 -2L504.603 17L563.439 151L600.336 -2Z" fill="#283944"/>
<path d="M547.483 -64L504.603 17L600.336 -2L547.483 -64Z" fill="#101820"/>
<path d="M698.064 -132L547.483 -64L674.131 -31L698.064 -132Z" fill="#23323D"/>
<path d="M674.131 -31L547.483 -64L600.336 -2L674.131 -31Z" fill="#374F5B"/>
<path d="M818.728 -28L698.064 -132L674.131 -31L818.728 -28Z" fill="#3C5663"/>
<path d="M389.922 -76L429.811 147L504.603 17L389.922 -76Z" fill="#415E6B"/>
<path d="M504.603 17L429.811 147L563.439 151L504.603 17Z" fill="#374F5B"/>
<path d="M409.867 266L541.5 449L644.214 206L409.867 266Z" fill="#1E2B35"/>
<path d="M1176.73 391L1070.03 209L1006.21 245L1176.73 391Z" fill="#283944"/>
<path d="M1006.21 245L1070.03 209L1001.22 135L1006.21 245Z" fill="#101820"/>
<path d="M784.822 440L926.428 445L894.517 275L784.822 440Z" fill="#3C5663"/>
<path d="M1089.97 93L1033.13 3L1001.22 135L1089.97 93Z" fill="#19252E"/>
<path d="M1001.22 135L1033.13 3L839.669 132L1001.22 135Z" fill="#23323D"/>
<path d="M818.728 -28L874.572 -153L698.064 -132L818.728 -28Z" fill="#151E27"/>
<path d="M409.867 266L644.214 206L563.439 151L409.867 266Z" fill="#1E2B35"/>
<path d="M784.822 440L809.753 553L926.428 445L784.822 440Z" fill="#283944"/>
<path d="M429.811 147L409.867 266L563.439 151L429.811 147Z" fill="#3C5663"/>
<path d="M1033.13 3L874.572 -153L818.728 -28L1033.13 3Z" fill="#324753"/>
<path d="M1070.03 209L1089.97 93L1001.22 135L1070.03 209Z" fill="#374F5B"/>
<path d="M549.478 574L809.753 553L784.822 440L549.478 574Z" fill="#1E2B35"/>
<path d="M278.233 191L369.978 315L409.867 266L278.233 191Z" fill="#3C5663"/>
<path d="M409.867 266L371.972 384L541.5 449L409.867 266Z" fill="#19252E"/>
<path d="M1033.13 3L966.317 -166L874.572 -153L1033.13 3Z" fill="#101820"/>
<path d="M874.572 -153L739.947 -237L698.064 -132L874.572 -153Z" fill="#101820"/>
<path d="M1117.89 -34L966.317 -166L1033.13 3L1117.89 -34Z" fill="#101820"/>
<path d="M922.439 -237H739.947L874.572 -153L922.439 -237Z" fill="#101820"/>
<path d="M698.064 -132L592.358 -237L547.483 -64L698.064 -132Z" fill="#374F5B"/>
<path d="M1176.73 391L1156.79 172L1070.03 209L1176.73 391Z" fill="#415E6B"/>
<path d="M1070.03 209L1156.79 172L1089.97 93L1070.03 209Z" fill="#1E2B35"/>
<path d="M1089.97 93L1117.89 -34L1033.13 3L1089.97 93Z" fill="#23323D"/>
<path d="M1221.61 144L1117.89 -34L1089.97 93L1221.61 144Z" fill="#324753"/>
<path d="M369.978 315L371.972 384L409.867 266L369.978 315Z" fill="#415E6B"/>
<path d="M663.161 662L798.783 600L809.753 553L663.161 662Z" fill="#374F5B"/>
<path d="M460.725 -237L389.922 -76L547.483 -64L460.725 -237Z" fill="#19252E"/>
<path d="M547.483 -64L389.922 -76L504.603 17L547.483 -64Z" fill="#151E27"/>
<path d="M429.811 147L278.233 191L409.867 266L429.811 147Z" fill="#283944"/>
<path d="M549.478 574L784.822 440L541.5 449L549.478 574Z" fill="#101820"/>
<path d="M809.753 553L1026.15 534L926.428 445L809.753 553Z" fill="#374F5B"/>
<path d="M926.428 445L1087.98 451L1006.21 245L926.428 445Z" fill="#101820"/>
<path d="M739.947 -237H592.358L698.064 -132L739.947 -237Z" fill="#324753"/>
<path d="M1024.16 -237H922.439L966.317 -166L1024.16 -237Z" fill="#283944"/>
<path d="M966.317 -166L922.439 -237L874.572 -153L966.317 -166Z" fill="#151E27"/>
<path d="M1026.15 534L1087.98 451L926.428 445L1026.15 534Z" fill="#415E6B"/>
<path d="M404.881 538L549.478 574L541.5 449L404.881 538Z" fill="#374F5B"/>
<path d="M947.369 676L1026.15 534L809.753 553L947.369 676Z" fill="#415E6B"/>
<path d="M369.978 315L227.375 482L371.972 384L369.978 315Z" fill="#19252E"/>
<path d="M294.189 -49L278.233 191L429.811 147L294.189 -49Z" fill="#151E27"/>
<path d="M1156.79 172L1221.61 144L1089.97 93L1156.79 172Z" fill="#3C5663"/>
<path d="M1280.44 375L1221.61 144L1156.79 172L1280.44 375Z" fill="#151E27"/>
<path d="M1149.81 519L1176.73 391L1087.98 451L1149.81 519Z" fill="#415E6B"/>
<path d="M1087.98 451L1176.73 391L1006.21 245L1087.98 451Z" fill="#1E2B35"/>
<path d="M592.358 -237H460.725L547.483 -64L592.358 -237Z" fill="#374F5B"/>
<path d="M1117.89 -34L1024.16 -237L966.317 -166L1117.89 -34Z" fill="#19252E"/>
<path d="M1204.65 -237H1024.16L1117.89 -34L1204.65 -237Z" fill="#374F5B"/>
<path d="M549.478 574L663.161 662L809.753 553L549.478 574Z" fill="#415E6B"/>
<path d="M1217.62 618L1149.81 519L1026.15 534L1217.62 618Z" fill="#23323D"/>
<path d="M371.972 384L404.881 538L541.5 449L371.972 384Z" fill="#374F5B"/>
<path d="M549.478 574L625.267 673L663.161 662L549.478 574Z" fill="#23323D"/>
<path d="M343.053 590L404.881 538L227.375 482L343.053 590Z" fill="#283944"/>
<path d="M325.103 -237L294.189 -49L389.922 -76L325.103 -237Z" fill="#1E2B35"/>
<path d="M389.922 -76L294.189 -49L429.811 147L389.922 -76Z" fill="#19252E"/>
<path d="M617.289 787L625.267 673L439.783 787H617.289Z" fill="#283944"/>
<path d="M209.425 -48L265.269 -40L294.189 -49L209.425 -48Z" fill="#23323D"/>
<path d="M294.189 -49L265.269 -40L278.233 191L294.189 -49Z" fill="#3C5663"/>
<path d="M947.369 676L809.753 553L798.783 600L947.369 676Z" fill="#151E27"/>
<path d="M1026.15 534L1149.81 519L1087.98 451L1026.15 534Z" fill="#23323D"/>
<path d="M852.633 736L947.369 676L798.783 600L852.633 736Z" fill="#415E6B"/>
<path d="M852.633 736L798.783 600L663.161 662L852.633 736Z" fill="#19252E"/>
<path d="M133.636 174L182.5 234L278.233 191L133.636 174Z" fill="#374F5B"/>
<path d="M278.233 191L182.5 234L369.978 315L278.233 191Z" fill="#23323D"/>
<path d="M698.064 787L852.633 736L663.161 662L698.064 787Z" fill="#3C5663"/>
<path d="M325.103 -237L209.425 -48L294.189 -49L325.103 -237Z" fill="#19252E"/>
<path d="M265.269 -40L209.425 -48L278.233 191L265.269 -40Z" fill="#19252E"/>
<path d="M1149.81 519L1280.44 375L1176.73 391L1149.81 519Z" fill="#2D404C"/>
<path d="M1176.73 391L1280.44 375L1156.79 172L1176.73 391Z" fill="#101820"/>
<path d="M227.375 482L404.881 538L371.972 384L227.375 482Z" fill="#374F5B"/>
<path d="M404.881 538L368.981 687L549.478 574L404.881 538Z" fill="#2D404C"/>
<path d="M1439 101L1292.41 -13L1221.61 144L1439 101Z" fill="#151E27"/>
<path d="M1221.61 144L1292.41 -13L1117.89 -34L1221.61 144Z" fill="#101820"/>
<path d="M460.725 -237H325.103L389.922 -76L460.725 -237Z" fill="#324753"/>
<path d="M182.5 234L227.375 482L369.978 315L182.5 234Z" fill="#324753"/>
<path d="M209.425 -48L133.636 174L278.233 191L209.425 -48Z" fill="#374F5B"/>
<path d="M182.5 234L75.7972 455L227.375 482L182.5 234Z" fill="#324753"/>
<path d="M1292.41 -13L1204.65 -237L1117.89 -34L1292.41 -13Z" fill="#283944"/>
<path d="M617.289 787H698.064L625.267 673L617.289 787Z" fill="#374F5B"/>
<path d="M625.267 673L698.064 787L663.161 662L625.267 673Z" fill="#283944"/>
<path d="M439.783 787L625.267 673L549.478 574L439.783 787Z" fill="#415E6B"/>
<path d="M1280.44 375L1372.19 212L1221.61 144L1280.44 375Z" fill="#19252E"/>
<path d="M1084.99 787L1217.62 618L1026.15 534L1084.99 787Z" fill="#1E2B35"/>
<path d="M852.633 736L898.506 787L947.369 676L852.633 736Z" fill="#151E27"/>
<path d="M698.064 787H898.506L852.633 736L698.064 787Z" fill="#3C5663"/>
<path d="M258.289 619L368.981 687L343.053 590L258.289 619Z" fill="#101820"/>
<path d="M343.053 590L368.981 687L404.881 538L343.053 590Z" fill="#415E6B"/>
<path d="M1084.99 787L1026.15 534L947.369 676L1084.99 787Z" fill="#151E27"/>
<path d="M1149.81 519L1371.19 541L1280.44 375L1149.81 519Z" fill="#19252E"/>
<path d="M1280.44 375L1439 262L1372.19 212L1280.44 375Z" fill="#374F5B"/>
<path d="M227.375 482L258.289 619L343.053 590L227.375 482Z" fill="#151E27"/>
<path d="M93.7472 576L258.289 619L227.375 482L93.7472 576Z" fill="#374F5B"/>
<path d="M898.506 787H988.256L947.369 676L898.506 787Z" fill="#101820"/>
<path d="M1350.25 -146L1289.42 -237H1204.65L1350.25 -146Z" fill="#151E27"/>
<path d="M1350.25 -146L1204.65 -237L1292.41 -13L1350.25 -146Z" fill="#3C5663"/>
<path d="M1439 -92L1350.25 -146L1292.41 -13L1439 -92Z" fill="#374F5B"/>
<path d="M323.108 787H439.783L368.981 687L323.108 787Z" fill="#151E27"/>
<path d="M368.981 687L439.783 787L549.478 574L368.981 687Z" fill="#324753"/>
<path d="M1372.19 212L1439 101L1221.61 144L1372.19 212Z" fill="#2D404C"/>
<path d="M1439 262V101L1372.19 212L1439 262Z" fill="#415E6B"/>
<path d="M1439 465V262L1280.44 375L1439 465Z" fill="#324753"/>
<path d="M988.256 787H1084.99L947.369 676L988.256 787Z" fill="#2D404C"/>
<path d="M1439 101V29L1292.41 -13L1439 101Z" fill="#1E2B35"/>
<path d="M325.103 -237H151.586L209.425 -48L325.103 -237Z" fill="#374F5B"/>
<path d="M3 91V169L133.636 174L3 91Z" fill="#2D404C"/>
<path d="M151.586 -237L92.75 -139L209.425 -48L151.586 -237Z" fill="#324753"/>
<path d="M3 260L182.5 234L133.636 174L3 260Z" fill="#415E6B"/>
<path d="M3 338L75.7972 455L182.5 234L3 338Z" fill="#19252E"/>
<path d="M258.289 619L323.108 787L368.981 687L258.289 619Z" fill="#415E6B"/>
<path d="M1217.62 618L1371.19 541L1149.81 519L1217.62 618Z" fill="#374F5B"/>
<path d="M1307.37 705L1371.19 541L1217.62 618L1307.37 705Z" fill="#324753"/>
<path d="M3 91L133.636 174L209.425 -48L3 91Z" fill="#415E6B"/>
<path d="M92.75 -139L3 91L209.425 -48L92.75 -139Z" fill="#415E6B"/>
<path d="M1439 29V-92L1292.41 -13L1439 29Z" fill="#374F5B"/>
<path d="M1350.25 -146L1439 -237H1289.42L1350.25 -146Z" fill="#324753"/>
<path d="M185.492 787H323.108L258.289 619L185.492 787Z" fill="#19252E"/>
<path d="M3 169V260L133.636 174L3 169Z" fill="#415E6B"/>
<path d="M1371.19 541L1439 465L1280.44 375L1371.19 541Z" fill="#1E2B35"/>
<path d="M3 260V338L182.5 234L3 260Z" fill="#415E6B"/>
<path d="M3 547L93.7472 576L75.7972 455L3 547Z" fill="#324753"/>
<path d="M75.7972 455L93.7472 576L227.375 482L75.7972 455Z" fill="#374F5B"/>
<path d="M1293.41 787L1307.37 705L1217.62 618L1293.41 787Z" fill="#283944"/>
<path d="M1371.19 541L1439 603V465L1371.19 541Z" fill="#151E27"/>
<path d="M1439 -92V-237L1350.25 -146L1439 -92Z" fill="#324753"/>
<path d="M3 -237V-161L92.75 -139L3 -237Z" fill="#374F5B"/>
<path d="M92.75 -139L3 -161V91L92.75 -139Z" fill="#324753"/>
<path d="M1439 616V603L1371.19 541L1439 616Z" fill="#151E27"/>
<path d="M93.7472 576L88.7611 670L258.289 619L93.7472 576Z" fill="#101820"/>
<path d="M3 582L88.7611 670L93.7472 576L3 582Z" fill="#3C5663"/>
<path d="M1084.99 787H1293.41L1217.62 618L1084.99 787Z" fill="#283944"/>
<path d="M1307.37 705L1439 616L1371.19 541L1307.37 705Z" fill="#23323D"/>
<path d="M1439 787V616L1307.37 705L1439 787Z" fill="#151E27"/>
<path d="M3 338V547L75.7972 455L3 338Z" fill="#374F5B"/>
<path d="M88.7611 670L185.492 787L258.289 619L88.7611 670Z" fill="#1E2B35"/>
<path d="M151.586 -237H3L92.75 -139L151.586 -237Z" fill="#3C5663"/>
<path d="M3 547V582L93.7472 576L3 547Z" fill="#151E27"/>
<path d="M88.7611 670L3 787H185.492L88.7611 670Z" fill="#415E6B"/>
<path d="M1293.41 787H1439L1307.37 705L1293.41 787Z" fill="#101820"/>
<path d="M3 582V787L88.7611 670L3 582Z" fill="#283944"/>
<path d="M684.103 257L839.669 132M684.103 257L644.214 206M684.103 257L541.5 449M684.103 257L894.517 275M684.103 257L784.822 440M839.669 132L644.214 206M839.669 132L642.219 200M839.669 132L894.517 275M839.669 132L818.728 -28M839.669 132L1033.13 3M839.669 132L674.131 -31M839.669 132L1001.22 135M644.214 206L642.219 200M644.214 206L563.439 151M644.214 206L541.5 449M644.214 206L409.867 266M642.219 200L563.439 151M642.219 200L600.336 -2M642.219 200L674.131 -31M600.336 -2L563.439 151M600.336 -2L674.131 -31M600.336 -2L504.603 17M600.336 -2L547.483 -64M563.439 151L504.603 17M563.439 151L429.811 147M563.439 151L409.867 266M541.5 449L784.822 440M541.5 449L409.867 266M541.5 449L371.972 384M541.5 449L549.478 574M541.5 449L404.881 538M894.517 275L1001.22 135M894.517 275L784.822 440M894.517 275L1006.21 245M894.517 275L926.428 445M1033.13 3L818.728 -28M1033.13 3L1089.97 93M1033.13 3L1001.22 135M1033.13 3L874.572 -153M1033.13 3L966.317 -166M1033.13 3L1117.89 -34M818.728 -28L674.131 -31M818.728 -28L698.064 -132M818.728 -28L874.572 -153M674.131 -31L547.483 -64M674.131 -31L698.064 -132M1001.22 135L1006.21 245M1001.22 135L1070.03 209M1001.22 135L1089.97 93M784.822 440L926.428 445M784.822 440L809.753 553M784.822 440L549.478 574M1006.21 245L926.428 445M1006.21 245L1070.03 209M1006.21 245L1176.73 391M1006.21 245L1087.98 451M926.428 445L809.753 553M926.428 445L1026.15 534M926.428 445L1087.98 451M504.603 17L547.483 -64M504.603 17L429.811 147M504.603 17L389.922 -76M547.483 -64L698.064 -132M547.483 -64L592.358 -237M547.483 -64L389.922 -76M547.483 -64L460.725 -237M698.064 -132L874.572 -153M698.064 -132L739.947 -237M698.064 -132L592.358 -237M389.922 -76L429.811 147M389.922 -76L460.725 -237M389.922 -76L294.189 -49M389.922 -76L325.103 -237M429.811 147L409.867 266M429.811 147L278.233 191M429.811 147L294.189 -49M409.867 266L369.978 315M409.867 266L278.233 191M409.867 266L371.972 384M1176.73 391L1070.03 209M1176.73 391L1156.79 172M1176.73 391L1149.81 519M1176.73 391L1087.98 451M1176.73 391L1280.44 375M1070.03 209L1089.97 93M1070.03 209L1156.79 172M1089.97 93L1156.79 172M1089.97 93L1117.89 -34M1089.97 93L1221.61 144M874.572 -153L966.317 -166M874.572 -153L739.947 -237M874.572 -153L922.439 -237M809.753 553L549.478 574M809.753 553L798.783 600M809.753 553L663.161 662M809.753 553L1026.15 534M809.753 553L947.369 676M549.478 574L404.881 538M549.478 574L663.161 662M549.478 574L625.267 673M549.478 574L368.981 687M549.478 574L439.783 787M278.233 191L369.978 315M278.233 191L294.189 -49M278.233 191L265.269 -40M278.233 191L182.5 234M278.233 191L133.636 174M278.233 191L209.425 -48M369.978 315L371.972 384M369.978 315L227.375 482M369.978 315L182.5 234M371.972 384L227.375 482M371.972 384L404.881 538M966.317 -166L1117.89 -34M966.317 -166L922.439 -237M966.317 -166L1024.16 -237M739.947 -237H922.439M739.947 -237H592.358M1117.89 -34L1221.61 144M1117.89 -34L1024.16 -237M1117.89 -34L1204.65 -237M1117.89 -34L1292.41 -13M922.439 -237H1024.16M592.358 -237H460.725M1156.79 172L1221.61 144M1156.79 172L1280.44 375M1221.61 144L1280.44 375M1221.61 144L1292.41 -13M1221.61 144L1439 101M1221.61 144L1372.19 212M663.161 662L798.783 600M663.161 662L625.267 673M663.161 662L852.633 736M663.161 662L698.064 787M798.783 600L947.369 676M798.783 600L852.633 736M460.725 -237H325.103M1026.15 534L1087.98 451M1026.15 534L947.369 676M1026.15 534L1149.81 519M1026.15 534L1217.62 618M1026.15 534L1084.99 787M1087.98 451L1149.81 519M1024.16 -237H1204.65M404.881 538L343.053 590M404.881 538L227.375 482M404.881 538L368.981 687M947.369 676L852.633 736M947.369 676L898.506 787M947.369 676L1084.99 787M947.369 676L988.256 787M227.375 482L343.053 590M227.375 482L182.5 234M227.375 482L75.7972 455M227.375 482L258.289 619M227.375 482L93.7472 576M294.189 -49L325.103 -237M294.189 -49L265.269 -40M294.189 -49L209.425 -48M1280.44 375L1149.81 519M1280.44 375L1372.19 212M1280.44 375L1371.19 541M1280.44 375L1439 262M1280.44 375L1439 465M1149.81 519L1217.62 618M1149.81 519L1371.19 541M1204.65 -237L1292.41 -13M1204.65 -237H1289.42M1204.65 -237L1350.25 -146M1217.62 618L1084.99 787M1217.62 618L1371.19 541M1217.62 618L1307.37 705M1217.62 618L1293.41 787M625.267 673L617.289 787M625.267 673L439.783 787M625.267 673L698.064 787M343.053 590L368.981 687M343.053 590L258.289 619M325.103 -237L209.425 -48M325.103 -237H151.586M617.289 787H439.783M617.289 787H698.064M439.783 787H323.108M439.783 787L368.981 687M209.425 -48L265.269 -40M209.425 -48L133.636 174M209.425 -48L151.586 -237M209.425 -48L92.75 -139M209.425 -48L3 91M852.633 736L698.064 787M852.633 736L898.506 787M133.636 174L182.5 234M133.636 174L3 169M133.636 174L3 91M133.636 174L3 260M182.5 234L75.7972 455M182.5 234L3 260M182.5 234L3 338M698.064 787H898.506M368.981 687L258.289 619M368.981 687L323.108 787M1439 101L1292.41 -13M1439 101L1372.19 212M1439 101V262M1439 101V29M1292.41 -13L1350.25 -146M1292.41 -13L1439 -92M1292.41 -13L1439 29M75.7972 455L3 338M75.7972 455L93.7472 576M75.7972 455L3 547M1372.19 212L1439 262M1084.99 787H988.256M1084.99 787H1293.41M898.506 787H988.256M258.289 619L93.7472 576M258.289 619L323.108 787M258.289 619L185.492 787M258.289 619L88.7611 670M1371.19 541L1307.37 705M1371.19 541L1439 465M1371.19 541L1439 603M1371.19 541L1439 616M1439 262V465M93.7472 576L3 547M93.7472 576L88.7611 670M93.7472 576L3 582M1350.25 -146L1289.42 -237M1350.25 -146L1439 -92M1350.25 -146L1439 -237M1289.42 -237H1439M1439 -92V29M1439 -92V-237M323.108 787H185.492M1439 465V603M151.586 -237L92.75 -139M151.586 -237H3M3 91V169M3 91L92.75 -139M3 91V-161M3 169V260M92.75 -139L3 -161M92.75 -139L3 -237M3 260V338M3 338V547M1307.37 705L1293.41 787M1307.37 705L1439 616M1307.37 705L1439 787M185.492 787L88.7611 670M185.492 787H3M3 547V582M1293.41 787H1439M1439 603V616M3 -237V-161M1439 616V787M88.7611 670L3 582M88.7611 670L3 787M3 582V787" stroke="#283944" stroke-linejoin="bevel"/>
</g>
<g style="mix-blend-mode:color">
<rect width="1440" height="550" fill="white"/>
</g>
<g style="mix-blend-mode:exclusion">
<rect width="1440" height="550" fill="white"/>
</g>
<rect opacity="0.77" width="1440" height="550" fill="white"/>
</svg>
