<svg width="1440" height="1024" viewBox="0 0 1440 1024" fill="none" xmlns="http://www.w3.org/2000/svg">
<path d="M683.052 494.035L838.835 369.279L643.107 443.135L683.052 494.035Z" fill="#23323D" stroke="#23323D" stroke-linejoin="bevel"/>
<path d="M838.834 369.279L641.109 437.146L643.107 443.135L838.834 369.279Z" fill="#283944" stroke="#283944" stroke-linejoin="bevel"/>
<path d="M599.168 235.541L562.22 388.242L641.11 437.146L599.168 235.541Z" fill="#2D404C" stroke="#2D404C" stroke-linejoin="bevel"/>
<path d="M641.11 437.146L562.22 388.242L643.107 443.135L641.11 437.146Z" fill="#151E27" stroke="#151E27" stroke-linejoin="bevel"/>
<path d="M643.107 443.135L540.25 685.66L683.051 494.035L643.107 443.135Z" fill="#23323D" stroke="#23323D" stroke-linejoin="bevel"/>
<path d="M683.052 494.035L893.759 512L838.835 369.279L683.052 494.035Z" fill="#1E2B35" stroke="#1E2B35" stroke-linejoin="bevel"/>
<path d="M1032.57 240.531L817.864 209.592L838.835 369.279L1032.57 240.531Z" fill="#23323D" stroke="#23323D" stroke-linejoin="bevel"/>
<path d="M838.834 369.279L673.065 206.598L641.109 437.146L838.834 369.279Z" fill="#101820" stroke="#101820" stroke-linejoin="bevel"/>
<path d="M817.864 209.592L673.065 206.598L838.835 369.279L817.864 209.592Z" fill="#3C5663" stroke="#3C5663" stroke-linejoin="bevel"/>
<path d="M673.065 206.598L599.168 235.541L641.11 437.146L673.065 206.598Z" fill="#415E6B" stroke="#415E6B" stroke-linejoin="bevel"/>
<path d="M893.759 512L1000.61 372.273L838.835 369.279L893.759 512Z" fill="#324753" stroke="#324753" stroke-linejoin="bevel"/>
<path d="M540.25 685.66L783.911 676.678L683.051 494.035L540.25 685.66Z" fill="#415E6B" stroke="#415E6B" stroke-linejoin="bevel"/>
<path d="M683.052 494.035L783.911 676.678L893.759 512L683.052 494.035Z" fill="#23323D" stroke="#23323D" stroke-linejoin="bevel"/>
<path d="M893.758 512L1005.6 482.059L1000.61 372.273L893.758 512Z" fill="#415E6B" stroke="#415E6B" stroke-linejoin="bevel"/>
<path d="M925.713 681.668L1005.6 482.059L893.758 512L925.713 681.668Z" fill="#374F5B" stroke="#374F5B" stroke-linejoin="bevel"/>
<path d="M599.168 235.541L503.302 254.504L562.22 388.242L599.168 235.541Z" fill="#283944" stroke="#283944" stroke-linejoin="bevel"/>
<path d="M546.242 173.662L503.302 254.504L599.168 235.541L546.242 173.662Z" fill="#101820" stroke="#101820" stroke-linejoin="bevel"/>
<path d="M697.032 105.795L546.242 173.662L673.066 206.598L697.032 105.795Z" fill="#23323D" stroke="#23323D" stroke-linejoin="bevel"/>
<path d="M673.066 206.598L546.242 173.662L599.169 235.541L673.066 206.598Z" fill="#374F5B" stroke="#374F5B" stroke-linejoin="bevel"/>
<path d="M817.864 209.592L697.032 105.795L673.065 206.598L817.864 209.592Z" fill="#3C5663" stroke="#3C5663" stroke-linejoin="bevel"/>
<path d="M388.461 161.686L428.405 384.25L503.301 254.504L388.461 161.686Z" fill="#415E6B" stroke="#415E6B" stroke-linejoin="bevel"/>
<path d="M503.301 254.504L428.405 384.25L562.219 388.242L503.301 254.504Z" fill="#374F5B" stroke="#374F5B" stroke-linejoin="bevel"/>
<path d="M408.434 503.018L540.25 685.66L643.107 443.135L408.434 503.018Z" fill="#1E2B35" stroke="#1E2B35" stroke-linejoin="bevel"/>
<path d="M1176.37 627.773L1069.51 446.129L1005.6 482.059L1176.37 627.773Z" fill="#283944" stroke="#283944" stroke-linejoin="bevel"/>
<path d="M1005.6 482.059L1069.51 446.129L1000.61 372.273L1005.6 482.059Z" fill="#101820" stroke="#101820" stroke-linejoin="bevel"/>
<path d="M783.911 676.678L925.714 681.668L893.758 512L783.911 676.678Z" fill="#3C5663" stroke="#3C5663" stroke-linejoin="bevel"/>
<path d="M1089.49 330.355L1032.56 240.531L1000.61 372.273L1089.49 330.355Z" fill="#19252E" stroke="#19252E" stroke-linejoin="bevel"/>
<path d="M1000.61 372.273L1032.57 240.531L838.835 369.279L1000.61 372.273Z" fill="#23323D" stroke="#23323D" stroke-linejoin="bevel"/>
<path d="M817.864 209.592L873.786 84.8359L697.032 105.795L817.864 209.592Z" fill="#151E27" stroke="#151E27" stroke-linejoin="bevel"/>
<path d="M408.434 503.018L643.107 443.135L562.22 388.242L408.434 503.018Z" fill="#1E2B35" stroke="#1E2B35" stroke-linejoin="bevel"/>
<path d="M783.911 676.678L808.876 789.457L925.714 681.668L783.911 676.678Z" fill="#283944" stroke="#283944" stroke-linejoin="bevel"/>
<path d="M428.406 384.25L408.434 503.018L562.22 388.242L428.406 384.25Z" fill="#3C5663" stroke="#3C5663" stroke-linejoin="bevel"/>
<path d="M1032.57 240.531L873.786 84.8359L817.864 209.592L1032.57 240.531Z" fill="#324753" stroke="#324753" stroke-linejoin="bevel"/>
<path d="M1069.51 446.129L1089.49 330.355L1000.61 372.273L1069.51 446.129Z" fill="#374F5B" stroke="#374F5B" stroke-linejoin="bevel"/>
<path d="M548.239 810.416L808.877 789.457L783.911 676.678L548.239 810.416Z" fill="#1E2B35" stroke="#1E2B35" stroke-linejoin="bevel"/>
<path d="M276.616 428.164L368.488 551.922L408.433 503.018L276.616 428.164Z" fill="#3C5663" stroke="#3C5663" stroke-linejoin="bevel"/>
<path d="M408.434 503.018L370.486 620.787L540.25 685.66L408.434 503.018Z" fill="#19252E" stroke="#19252E" stroke-linejoin="bevel"/>
<path d="M1032.57 240.531L965.658 71.8613L873.786 84.8359L1032.57 240.531Z" fill="#101820" stroke="#101820" stroke-linejoin="bevel"/>
<path d="M873.786 84.8359L738.974 1L697.032 105.795L873.786 84.8359Z" fill="#101820" stroke="#101820" stroke-linejoin="bevel"/>
<path d="M1117.45 203.604L965.658 71.8613L1032.57 240.531L1117.45 203.604Z" fill="#101820" stroke="#101820" stroke-linejoin="bevel"/>
<path d="M921.719 1H738.974L873.786 84.8359L921.719 1Z" fill="#101820" stroke="#101820" stroke-linejoin="bevel"/>
<path d="M697.032 105.795L591.18 1L546.242 173.662L697.032 105.795Z" fill="#374F5B" stroke="#374F5B" stroke-linejoin="bevel"/>
<path d="M1176.37 627.773L1156.39 409.201L1069.51 446.129L1176.37 627.773Z" fill="#415E6B" stroke="#415E6B" stroke-linejoin="bevel"/>
<path d="M1069.51 446.129L1156.39 409.201L1089.49 330.355L1069.51 446.129Z" fill="#1E2B35" stroke="#1E2B35" stroke-linejoin="bevel"/>
<path d="M1089.49 330.355L1117.45 203.604L1032.57 240.531L1089.49 330.355Z" fill="#23323D" stroke="#23323D" stroke-linejoin="bevel"/>
<path d="M1221.3 381.256L1117.45 203.604L1089.49 330.355L1221.3 381.256Z" fill="#324753" stroke="#324753" stroke-linejoin="bevel"/>
<path d="M368.489 551.922L370.486 620.787L408.434 503.018L368.489 551.922Z" fill="#415E6B" stroke="#415E6B" stroke-linejoin="bevel"/>
<path d="M662.08 898.244L797.891 836.365L808.876 789.457L662.08 898.244Z" fill="#374F5B" stroke="#374F5B" stroke-linejoin="bevel"/>
<path d="M459.362 1L388.461 161.686L546.241 173.662L459.362 1Z" fill="#19252E" stroke="#19252E" stroke-linejoin="bevel"/>
<path d="M546.241 173.662L388.461 161.686L503.301 254.504L546.241 173.662Z" fill="#151E27" stroke="#151E27" stroke-linejoin="bevel"/>
<path d="M428.405 384.25L276.616 428.164L408.433 503.018L428.405 384.25Z" fill="#283944" stroke="#283944" stroke-linejoin="bevel"/>
<path d="M548.239 810.416L783.911 676.678L540.25 685.66L548.239 810.416Z" fill="#101820" stroke="#101820" stroke-linejoin="bevel"/>
<path d="M808.876 789.457L1025.57 770.494L925.713 681.668L808.876 789.457Z" fill="#374F5B" stroke="#374F5B" stroke-linejoin="bevel"/>
<path d="M925.714 681.668L1087.49 687.656L1005.6 482.059L925.714 681.668Z" fill="#101820" stroke="#101820" stroke-linejoin="bevel"/>
<path d="M738.974 1H591.18L697.032 105.795L738.974 1Z" fill="#324753" stroke="#324753" stroke-linejoin="bevel"/>
<path d="M1023.58 1H921.72L965.659 71.8613L1023.58 1Z" fill="#283944" stroke="#283944" stroke-linejoin="bevel"/>
<path d="M965.658 71.8613L921.719 1L873.786 84.8359L965.658 71.8613Z" fill="#151E27" stroke="#151E27" stroke-linejoin="bevel"/>
<path d="M1025.57 770.494L1087.49 687.656L925.714 681.668L1025.57 770.494Z" fill="#415E6B" stroke="#415E6B" stroke-linejoin="bevel"/>
<path d="M403.44 774.486L548.239 810.416L540.25 685.66L403.44 774.486Z" fill="#374F5B" stroke="#374F5B" stroke-linejoin="bevel"/>
<path d="M946.684 912.217L1025.57 770.494L808.876 789.457L946.684 912.217Z" fill="#415E6B" stroke="#415E6B" stroke-linejoin="bevel"/>
<path d="M368.489 551.922L225.688 718.596L370.486 620.787L368.489 551.922Z" fill="#19252E" stroke="#19252E" stroke-linejoin="bevel"/>
<path d="M292.594 188.633L276.616 428.164L428.405 384.25L292.594 188.633Z" fill="#151E27" stroke="#151E27" stroke-linejoin="bevel"/>
<path d="M1156.39 409.201L1221.3 381.256L1089.49 330.355L1156.39 409.201Z" fill="#3C5663" stroke="#3C5663" stroke-linejoin="bevel"/>
<path d="M1280.22 611.805L1221.3 381.256L1156.39 409.201L1280.22 611.805Z" fill="#151E27" stroke="#151E27" stroke-linejoin="bevel"/>
<path d="M1149.4 755.523L1176.36 627.773L1087.49 687.656L1149.4 755.523Z" fill="#415E6B" stroke="#415E6B" stroke-linejoin="bevel"/>
<path d="M1087.49 687.656L1176.37 627.773L1005.6 482.059L1087.49 687.656Z" fill="#1E2B35" stroke="#1E2B35" stroke-linejoin="bevel"/>
<path d="M591.179 1H459.362L546.241 173.662L591.179 1Z" fill="#374F5B" stroke="#374F5B" stroke-linejoin="bevel"/>
<path d="M1117.45 203.604L1023.58 1L965.658 71.8613L1117.45 203.604Z" fill="#19252E" stroke="#19252E" stroke-linejoin="bevel"/>
<path d="M1204.33 1H1023.58L1117.45 203.604L1204.33 1Z" fill="#374F5B" stroke="#374F5B" stroke-linejoin="bevel"/>
<path d="M548.239 810.416L662.081 898.244L808.877 789.457L548.239 810.416Z" fill="#415E6B" stroke="#415E6B" stroke-linejoin="bevel"/>
<path d="M1217.31 854.33L1149.4 755.523L1025.58 770.494L1217.31 854.33Z" fill="#23323D" stroke="#23323D" stroke-linejoin="bevel"/>
<path d="M370.486 620.787L403.44 774.486L540.25 685.66L370.486 620.787Z" fill="#374F5B" stroke="#374F5B" stroke-linejoin="bevel"/>
<path d="M548.239 810.416L624.134 909.223L662.081 898.244L548.239 810.416Z" fill="#23323D" stroke="#23323D" stroke-linejoin="bevel"/>
<path d="M341.526 826.385L403.44 774.486L225.688 718.596L341.526 826.385Z" fill="#283944" stroke="#283944" stroke-linejoin="bevel"/>
<path d="M323.552 1L292.595 188.633L388.461 161.686L323.552 1Z" fill="#1E2B35" stroke="#1E2B35" stroke-linejoin="bevel"/>
<path d="M388.461 161.686L292.595 188.633L428.406 384.25L388.461 161.686Z" fill="#19252E" stroke="#19252E" stroke-linejoin="bevel"/>
<path d="M616.144 1023L624.133 909.223L438.392 1023H616.144Z" fill="#283944" stroke="#283944" stroke-linejoin="bevel"/>
<path d="M207.713 189.631L263.635 197.615L292.595 188.633L207.713 189.631Z" fill="#23323D" stroke="#23323D" stroke-linejoin="bevel"/>
<path d="M292.594 188.633L263.635 197.615L276.617 428.164L292.594 188.633Z" fill="#3C5663" stroke="#3C5663" stroke-linejoin="bevel"/>
<path d="M946.685 912.217L808.876 789.457L797.892 836.365L946.685 912.217Z" fill="#151E27" stroke="#151E27" stroke-linejoin="bevel"/>
<path d="M1025.58 770.494L1149.4 755.523L1087.49 687.656L1025.58 770.494Z" fill="#23323D" stroke="#23323D" stroke-linejoin="bevel"/>
<path d="M851.817 972.1L946.685 912.217L797.892 836.365L851.817 972.1Z" fill="#415E6B" stroke="#415E6B" stroke-linejoin="bevel"/>
<path d="M851.816 972.1L797.891 836.365L662.08 898.244L851.816 972.1Z" fill="#19252E" stroke="#19252E" stroke-linejoin="bevel"/>
<path d="M131.818 411.197L180.75 471.08L276.617 428.164L131.818 411.197Z" fill="#374F5B" stroke="#374F5B" stroke-linejoin="bevel"/>
<path d="M276.617 428.164L180.75 471.08L368.489 551.922L276.617 428.164Z" fill="#23323D" stroke="#23323D" stroke-linejoin="bevel"/>
<path d="M697.031 1023L851.816 972.1L662.08 898.244L697.031 1023Z" fill="#3C5663" stroke="#3C5663" stroke-linejoin="bevel"/>
<path d="M323.552 1L207.713 189.631L292.595 188.633L323.552 1Z" fill="#19252E" stroke="#19252E" stroke-linejoin="bevel"/>
<path d="M263.635 197.615L207.713 189.631L276.617 428.164L263.635 197.615Z" fill="#19252E" stroke="#19252E" stroke-linejoin="bevel"/>
<path d="M1149.4 755.523L1280.22 611.805L1176.36 627.773L1149.4 755.523Z" fill="#2D404C" stroke="#2D404C" stroke-linejoin="bevel"/>
<path d="M1176.36 627.773L1280.22 611.805L1156.39 409.201L1176.36 627.773Z" fill="#101820" stroke="#101820" stroke-linejoin="bevel"/>
<path d="M225.688 718.596L403.44 774.486L370.486 620.787L225.688 718.596Z" fill="#374F5B" stroke="#374F5B" stroke-linejoin="bevel"/>
<path d="M403.44 774.486L367.49 923.195L548.239 810.416L403.44 774.486Z" fill="#2D404C" stroke="#2D404C" stroke-linejoin="bevel"/>
<path d="M1439 338.34L1292.2 224.562L1221.3 381.256L1439 338.34Z" fill="#151E27" stroke="#151E27" stroke-linejoin="bevel"/>
<path d="M1221.3 381.256L1292.2 224.562L1117.45 203.604L1221.3 381.256Z" fill="#101820" stroke="#101820" stroke-linejoin="bevel"/>
<path d="M459.363 1H323.552L388.461 161.686L459.363 1Z" fill="#324753" stroke="#324753" stroke-linejoin="bevel"/>
<path d="M180.75 471.08L225.688 718.596L368.489 551.922L180.75 471.08Z" fill="#324753" stroke="#324753" stroke-linejoin="bevel"/>
<path d="M207.713 189.631L131.818 411.197L276.617 428.164L207.713 189.631Z" fill="#374F5B" stroke="#374F5B" stroke-linejoin="bevel"/>
<path d="M180.75 471.08L73.8984 691.648L225.687 718.596L180.75 471.08Z" fill="#324753" stroke="#324753" stroke-linejoin="bevel"/>
<path d="M1292.2 224.562L1204.33 1L1117.45 203.604L1292.2 224.562Z" fill="#283944" stroke="#283944" stroke-linejoin="bevel"/>
<path d="M616.145 1023H697.032L624.133 909.223L616.145 1023Z" fill="#374F5B" stroke="#374F5B" stroke-linejoin="bevel"/>
<path d="M624.133 909.223L697.031 1023L662.08 898.244L624.133 909.223Z" fill="#283944" stroke="#283944" stroke-linejoin="bevel"/>
<path d="M438.392 1023L624.133 909.223L548.239 810.416L438.392 1023Z" fill="#415E6B" stroke="#415E6B" stroke-linejoin="bevel"/>
<path d="M1280.22 611.805L1372.09 449.123L1221.3 381.256L1280.22 611.805Z" fill="#19252E" stroke="#19252E" stroke-linejoin="bevel"/>
<path d="M1084.49 1023L1217.31 854.33L1025.58 770.494L1084.49 1023Z" fill="#1E2B35" stroke="#1E2B35" stroke-linejoin="bevel"/>
<path d="M851.816 972.1L897.753 1023L946.684 912.217L851.816 972.1Z" fill="#151E27" stroke="#151E27" stroke-linejoin="bevel"/>
<path d="M697.032 1023H897.753L851.817 972.1L697.032 1023Z" fill="#3C5663" stroke="#3C5663" stroke-linejoin="bevel"/>
<path d="M256.645 855.328L367.49 923.195L341.526 826.385L256.645 855.328Z" fill="#101820" stroke="#101820" stroke-linejoin="bevel"/>
<path d="M341.526 826.385L367.49 923.195L403.44 774.486L341.526 826.385Z" fill="#415E6B" stroke="#415E6B" stroke-linejoin="bevel"/>
<path d="M1084.49 1023L1025.57 770.494L946.685 912.217L1084.49 1023Z" fill="#151E27" stroke="#151E27" stroke-linejoin="bevel"/>
<path d="M1149.4 755.523L1371.09 777.48L1280.22 611.805L1149.4 755.523Z" fill="#19252E" stroke="#19252E" stroke-linejoin="bevel"/>
<path d="M1280.22 611.805L1439 499.025L1372.09 449.123L1280.22 611.805Z" fill="#374F5B" stroke="#374F5B" stroke-linejoin="bevel"/>
<path d="M225.688 718.596L256.644 855.328L341.526 826.385L225.688 718.596Z" fill="#151E27" stroke="#151E27" stroke-linejoin="bevel"/>
<path d="M91.874 812.412L256.645 855.328L225.688 718.596L91.874 812.412Z" fill="#374F5B" stroke="#374F5B" stroke-linejoin="bevel"/>
<path d="M897.753 1023H987.628L946.685 912.217L897.753 1023Z" fill="#101820" stroke="#101820" stroke-linejoin="bevel"/>
<path d="M1350.12 91.8223L1289.21 1H1204.33L1350.12 91.8223Z" fill="#151E27" stroke="#151E27" stroke-linejoin="bevel"/>
<path d="M1350.12 91.8223L1204.33 1L1292.2 224.562L1350.12 91.8223Z" fill="#3C5663" stroke="#3C5663" stroke-linejoin="bevel"/>
<path d="M1439 145.717L1350.12 91.8223L1292.2 224.562L1439 145.717Z" fill="#374F5B" stroke="#374F5B" stroke-linejoin="bevel"/>
<path d="M321.554 1023H438.391L367.49 923.195L321.554 1023Z" fill="#151E27" stroke="#151E27" stroke-linejoin="bevel"/>
<path d="M367.49 923.195L438.392 1023L548.239 810.416L367.49 923.195Z" fill="#324753" stroke="#324753" stroke-linejoin="bevel"/>
<path d="M1372.09 449.123L1439 338.34L1221.3 381.256L1372.09 449.123Z" fill="#2D404C" stroke="#2D404C" stroke-linejoin="bevel"/>
<path d="M1439 499.025V338.34L1372.09 449.123L1439 499.025Z" fill="#415E6B" stroke="#415E6B" stroke-linejoin="bevel"/>
<path d="M1439 701.629V499.025L1280.22 611.805L1439 701.629Z" fill="#324753" stroke="#324753" stroke-linejoin="bevel"/>
<path d="M987.628 1023H1084.49L946.685 912.217L987.628 1023Z" fill="#2D404C" stroke="#2D404C" stroke-linejoin="bevel"/>
<path d="M1439 338.34V266.48L1292.2 224.562L1439 338.34Z" fill="#1E2B35" stroke="#1E2B35" stroke-linejoin="bevel"/>
<path d="M323.551 1H149.793L207.712 189.631L323.551 1Z" fill="#374F5B" stroke="#374F5B" stroke-linejoin="bevel"/>
<path d="M1 328.359V406.207L131.818 411.197L1 328.359Z" fill="#2D404C" stroke="#2D404C" stroke-linejoin="bevel"/>
<path d="M149.793 1L90.875 98.8086L207.712 189.631L149.793 1Z" fill="#324753" stroke="#324753" stroke-linejoin="bevel"/>
<path d="M1 497.029L180.75 471.08L131.818 411.197L1 497.029Z" fill="#415E6B" stroke="#415E6B" stroke-linejoin="bevel"/>
<path d="M1 574.877L73.8986 691.648L180.75 471.08L1 574.877Z" fill="#19252E" stroke="#19252E" stroke-linejoin="bevel"/>
<path d="M256.645 855.328L321.554 1023L367.49 923.195L256.645 855.328Z" fill="#415E6B" stroke="#415E6B" stroke-linejoin="bevel"/>
<path d="M1217.31 854.33L1371.09 777.48L1149.4 755.523L1217.31 854.33Z" fill="#374F5B" stroke="#374F5B" stroke-linejoin="bevel"/>
<path d="M1307.18 941.16L1371.09 777.48L1217.31 854.33L1307.18 941.16Z" fill="#324753" stroke="#324753" stroke-linejoin="bevel"/>
<path d="M1 328.359L131.818 411.197L207.712 189.631L1 328.359Z" fill="#415E6B" stroke="#415E6B" stroke-linejoin="bevel"/>
<path d="M90.875 98.8086L1 328.359L207.712 189.631L90.875 98.8086Z" fill="#415E6B" stroke="#415E6B" stroke-linejoin="bevel"/>
<path d="M1439 266.48V145.717L1292.2 224.562L1439 266.48Z" fill="#374F5B" stroke="#374F5B" stroke-linejoin="bevel"/>
<path d="M1350.12 91.8223L1439 1H1289.21L1350.12 91.8223Z" fill="#324753" stroke="#324753" stroke-linejoin="bevel"/>
<path d="M183.746 1023H321.554L256.645 855.328L183.746 1023Z" fill="#19252E" stroke="#19252E" stroke-linejoin="bevel"/>
<path d="M1 406.207V497.029L131.818 411.197L1 406.207Z" fill="#415E6B" stroke="#415E6B" stroke-linejoin="bevel"/>
<path d="M1371.09 777.48L1439 701.629L1280.22 611.805L1371.09 777.48Z" fill="#1E2B35" stroke="#1E2B35" stroke-linejoin="bevel"/>
<path d="M1 497.029V574.877L180.75 471.08L1 497.029Z" fill="#415E6B" stroke="#415E6B" stroke-linejoin="bevel"/>
<path d="M1 783.469L91.8736 812.412L73.8986 691.648L1 783.469Z" fill="#324753" stroke="#324753" stroke-linejoin="bevel"/>
<path d="M73.8984 691.648L91.8734 812.412L225.687 718.596L73.8984 691.648Z" fill="#374F5B" stroke="#374F5B" stroke-linejoin="bevel"/>
<path d="M1293.2 1023L1307.18 941.16L1217.31 854.33L1293.2 1023Z" fill="#283944" stroke="#283944" stroke-linejoin="bevel"/>
<path d="M1371.09 777.48L1439 839.359V701.629L1371.09 777.48Z" fill="#151E27" stroke="#151E27" stroke-linejoin="bevel"/>
<path d="M1439 145.717V1L1350.12 91.8223L1439 145.717Z" fill="#324753" stroke="#324753" stroke-linejoin="bevel"/>
<path d="M1 1V76.8516L90.875 98.8086L1 1Z" fill="#374F5B" stroke="#374F5B" stroke-linejoin="bevel"/>
<path d="M90.875 98.8086L1 76.8516V328.359L90.875 98.8086Z" fill="#324753" stroke="#324753" stroke-linejoin="bevel"/>
<path d="M1439 852.334V839.359L1371.09 777.48L1439 852.334Z" fill="#151E27" stroke="#151E27" stroke-linejoin="bevel"/>
<path d="M91.8739 812.412L86.8809 906.229L256.645 855.328L91.8739 812.412Z" fill="#101820" stroke="#101820" stroke-linejoin="bevel"/>
<path d="M1 818.4L86.8806 906.229L91.8736 812.412L1 818.4Z" fill="#3C5663" stroke="#3C5663" stroke-linejoin="bevel"/>
<path d="M1084.49 1023H1293.2L1217.31 854.33L1084.49 1023Z" fill="#283944" stroke="#283944" stroke-linejoin="bevel"/>
<path d="M1307.18 941.16L1439 852.334L1371.09 777.48L1307.18 941.16Z" fill="#23323D" stroke="#23323D" stroke-linejoin="bevel"/>
<path d="M1439 1023V852.334L1307.18 941.16L1439 1023Z" fill="#151E27" stroke="#151E27" stroke-linejoin="bevel"/>
<path d="M1 574.877V783.469L73.8986 691.648L1 574.877Z" fill="#374F5B" stroke="#374F5B" stroke-linejoin="bevel"/>
<path d="M86.8809 906.229L183.746 1023L256.645 855.328L86.8809 906.229Z" fill="#1E2B35" stroke="#1E2B35" stroke-linejoin="bevel"/>
<path d="M149.793 1H1L90.875 98.8086L149.793 1Z" fill="#3C5663" stroke="#3C5663" stroke-linejoin="bevel"/>
<path d="M1 783.469V818.4L91.8736 812.412L1 783.469Z" fill="#151E27" stroke="#151E27" stroke-linejoin="bevel"/>
<path d="M86.8805 906.229L1 1023H183.746L86.8805 906.229Z" fill="#415E6B" stroke="#415E6B" stroke-linejoin="bevel"/>
<path d="M1293.2 1023H1439L1307.18 941.16L1293.2 1023Z" fill="#101820" stroke="#101820" stroke-linejoin="bevel"/>
<path d="M1 818.4V1023L86.8806 906.229L1 818.4Z" fill="#283944" stroke="#283944" stroke-linejoin="bevel"/>
<g style="mix-blend-mode:saturation">
<rect width="1440" height="1024" fill="#101820"/>
</g>
<rect opacity="0.8" width="1440" height="1024" fill="#0E161E"/>
</svg>
