<svg width="1240" height="210" viewBox="0 0 1240 210" fill="none" xmlns="http://www.w3.org/2000/svg">
<path d="M1158.26 208.998C1158.24 209.001 1158.22 209.001 1158.2 208.998C1158.18 208.994 1158.17 208.988 1158.15 208.98C1158.12 208.965 1158.09 208.945 1158.07 208.92C1158.05 208.894 1158.03 208.865 1158.02 208.833C1158 208.799 1158 208.764 1158 208.728C1158 208.692 1158.01 208.658 1158.03 208.625L1174.27 173.892L1190.5 139.154C1190.53 139.093 1190.58 139.045 1190.65 139.022C1190.68 139.007 1190.71 139 1190.75 139C1190.78 139 1190.82 139.007 1190.85 139.022C1190.91 139.052 1190.96 139.104 1190.98 139.169C1191 139.202 1191 139.238 1191 139.274C1191 139.309 1190.99 139.344 1190.97 139.376L1174.73 174.114L1158.49 208.851C1158.47 208.896 1158.43 208.933 1158.39 208.959C1158.35 208.984 1158.31 208.998 1158.26 208.998Z" fill="#F6E332"/>
<path d="M1158.26 208.998H1158.21C1158.18 208.992 1158.15 208.979 1158.12 208.96C1158.09 208.941 1158.06 208.917 1158.04 208.889C1158.03 208.861 1158.01 208.829 1158.01 208.795C1158 208.761 1158 208.727 1158 208.693L1167.75 158.951L1177.49 109.208C1177.5 109.175 1177.51 109.143 1177.53 109.114C1177.55 109.086 1177.57 109.062 1177.6 109.043C1177.66 109.005 1177.73 108.992 1177.79 109.005C1177.83 109.011 1177.86 109.024 1177.89 109.043C1177.91 109.062 1177.94 109.086 1177.96 109.115C1177.97 109.143 1177.99 109.174 1177.99 109.207C1178 109.241 1178 109.275 1177.99 109.308L1168.25 159.05L1158.51 208.793C1158.5 208.851 1158.47 208.904 1158.42 208.942C1158.38 208.98 1158.32 209 1158.26 209L1158.26 208.998Z" fill="#F6E332"/>
<path d="M1199.99 93.5297C1200.1 97.6924 1198.8 101.764 1196.31 105.051C1193.83 108.338 1190.31 110.637 1186.36 111.556C1182.41 112.475 1178.28 111.958 1174.66 110.092C1171.04 108.226 1168.16 105.128 1166.51 101.324C1164.87 97.5202 1164.55 93.2467 1165.63 89.2314C1166.7 85.2161 1169.09 81.7075 1172.4 79.3033C1175.7 76.8991 1179.72 75.7481 1183.75 76.0462C1187.79 76.3444 1191.6 78.0734 1194.54 80.9386C1196.21 82.5638 1197.55 84.5131 1198.49 86.674C1199.43 88.8349 1199.94 91.1648 1199.99 93.5297Z" fill="#E6E6E6"/>
<path d="M1205 135.706C1205.06 138.25 1204.25 140.739 1202.69 142.749C1201.12 144.758 1198.92 146.165 1196.43 146.728C1193.95 147.29 1191.35 146.975 1189.08 145.836C1186.8 144.697 1184.99 142.804 1183.95 140.479C1182.92 138.155 1182.72 135.543 1183.39 133.089C1184.07 130.635 1185.57 128.49 1187.65 127.02C1189.72 125.55 1192.25 124.846 1194.79 125.028C1197.32 125.21 1199.72 126.266 1201.57 128.017C1202.62 129.01 1203.46 130.201 1204.05 131.52C1204.64 132.84 1204.96 134.262 1205 135.706Z" fill="#E6E6E6"/>
<path d="M1195.78 94C1194.81 93.9875 1193.88 93.6479 1193.12 93.0341C1192.31 92.3984 1191.72 91.5249 1191.42 90.5328C1190.47 91.0589 1189.39 91.2969 1188.31 91.2193C1187.29 91.1513 1186.32 90.741 1185.55 90.052C1184.92 89.4657 1184.46 88.711 1184.23 87.8733C1184.08 87.3523 1184 86.812 1184 86.2685C1184 86.2331 1184.01 86.1979 1184.02 86.1652C1184.03 86.1325 1184.05 86.1029 1184.08 86.078C1184.13 86.0283 1184.19 86.0003 1184.26 86C1184.3 86.0001 1184.33 86.0072 1184.37 86.021C1184.4 86.0347 1184.43 86.0548 1184.45 86.0801C1184.48 86.105 1184.49 86.1347 1184.51 86.1674C1184.52 86.2002 1184.53 86.2353 1184.53 86.2707C1184.53 86.7578 1184.6 87.2417 1184.74 87.7087C1184.94 88.4572 1185.35 89.1325 1185.9 89.6578C1186.63 90.3041 1187.56 90.6722 1188.52 90.6995C1189.56 90.7367 1190.58 90.4586 1191.46 89.9004L1191.61 89.8008L1191.77 89.7033L1191.81 89.8874L1191.85 90.0715C1192.1 91.1562 1192.72 92.1101 1193.61 92.7482C1194.03 93.0546 1194.5 93.2694 1195 93.379C1195.5 93.4886 1196.02 93.4906 1196.52 93.3849C1197.3 93.1919 1198.01 92.7344 1198.51 92.0855C1199.05 91.4083 1199.38 90.5833 1199.46 89.7141C1199.46 89.6765 1199.48 89.64 1199.49 89.6072C1199.51 89.5743 1199.54 89.5458 1199.57 89.5235C1199.62 89.4787 1199.69 89.4576 1199.76 89.4649C1199.83 89.4722 1199.9 89.5073 1199.94 89.5625C1199.98 89.6178 1200.01 89.6885 1200 89.7596C1199.9 90.742 1199.53 91.6737 1198.92 92.4364C1198.34 93.1671 1197.54 93.6805 1196.64 93.896C1196.36 93.9591 1196.08 93.991 1195.8 93.9913L1195.78 94Z" fill="#F6E332"/>
<path d="M1173 101C1172.55 100.996 1172.1 100.874 1171.72 100.648C1171.48 100.511 1171.26 100.342 1171.07 100.146C1171.04 100.122 1171.03 100.093 1171.01 100.062C1171 100.032 1171 99.999 1171 99.9665C1171 99.9341 1171.01 99.9023 1171.02 99.873C1171.04 99.8438 1171.06 99.8177 1171.09 99.7965C1171.11 99.775 1171.14 99.7585 1171.18 99.748C1171.21 99.7375 1171.24 99.7331 1171.28 99.7352C1171.31 99.7363 1171.35 99.744 1171.38 99.7579C1171.41 99.7719 1171.44 99.7917 1171.46 99.8163C1171.61 99.9738 1171.79 100.11 1171.98 100.221C1172.29 100.403 1172.64 100.502 1173 100.506C1173.47 100.499 1173.92 100.34 1174.27 100.055C1174.65 99.7534 1174.93 99.3526 1175.07 98.9033L1175.12 98.7393L1175.17 98.5733L1175.32 98.6721L1175.48 98.7729C1175.9 99.0517 1176.42 99.1741 1176.94 99.1167C1177.18 99.0927 1177.42 99.0217 1177.63 98.9084C1177.84 98.7952 1178.02 98.642 1178.17 98.4586C1178.39 98.1623 1178.49 97.806 1178.47 97.4468C1178.45 97.0661 1178.31 96.6997 1178.06 96.3935C1178.04 96.3676 1178.03 96.3379 1178.02 96.3063C1178.01 96.2747 1178.01 96.2419 1178.02 96.2098C1178.03 96.1452 1178.06 96.0871 1178.12 96.0477C1178.18 96.0099 1178.25 95.9937 1178.32 96.0022C1178.39 96.0125 1178.45 96.048 1178.49 96.1011C1178.8 96.491 1178.97 96.9583 1179 97.4429C1179.02 97.9054 1178.88 98.363 1178.6 98.7432C1178.26 99.1797 1177.75 99.4775 1177.19 99.5752C1176.6 99.6829 1175.99 99.6006 1175.46 99.342C1175.25 99.8189 1174.9 100.232 1174.46 100.538C1174.04 100.832 1173.53 100.994 1173.01 101H1172.99H1173Z" fill="#F6E332"/>
<path d="M1200.34 144C1200.24 144 1200.15 144 1200.06 143.986C1199.97 143.977 1199.88 143.962 1199.79 143.943C1199.08 143.784 1198.47 143.357 1198.07 142.755C1197.66 142.135 1197.47 141.391 1197.55 140.652C1196.85 140.678 1196.16 140.512 1195.54 140.172C1194.97 139.852 1194.51 139.358 1194.24 138.763C1194.02 138.25 1193.95 137.687 1194.04 137.138C1194.09 136.796 1194.19 136.462 1194.33 136.147C1194.35 136.117 1194.37 136.091 1194.39 136.069C1194.41 136.047 1194.44 136.031 1194.47 136.02C1194.5 136.007 1194.54 136 1194.57 136C1194.61 136 1194.64 136.007 1194.67 136.02C1194.7 136.033 1194.73 136.052 1194.75 136.076C1194.77 136.099 1194.79 136.127 1194.8 136.157C1194.81 136.187 1194.82 136.219 1194.81 136.251C1194.81 136.283 1194.81 136.315 1194.79 136.344C1194.67 136.612 1194.58 136.897 1194.54 137.189C1194.46 137.651 1194.52 138.124 1194.7 138.556C1194.96 139.102 1195.39 139.545 1195.94 139.809C1196.52 140.098 1197.18 140.209 1197.83 140.129L1198 140.109L1198.17 140.09L1198.14 140.256L1198.1 140.422C1197.96 141.081 1198.07 141.768 1198.42 142.35C1198.57 142.626 1198.79 142.866 1199.05 143.056C1199.3 143.246 1199.6 143.381 1199.91 143.453C1200.41 143.551 1200.92 143.482 1201.37 143.258C1201.86 143.025 1202.26 142.657 1202.53 142.2C1202.54 142.172 1202.57 142.148 1202.59 142.128C1202.62 142.109 1202.65 142.095 1202.68 142.087C1202.71 142.078 1202.75 142.075 1202.78 142.08C1202.81 142.084 1202.85 142.095 1202.88 142.112C1202.93 142.146 1202.97 142.2 1202.99 142.263C1203 142.293 1203 142.326 1203 142.357C1202.99 142.389 1202.98 142.419 1202.96 142.446C1202.69 142.911 1202.3 143.299 1201.83 143.574C1201.38 143.848 1200.86 143.995 1200.34 144Z" fill="#F6E332"/>
<path d="M63.4152 198.491C62.0668 198.575 61.3215 196.899 62.3417 195.922L62.4432 195.518L62.4029 195.421C61.0392 192.167 56.4176 192.189 55.0655 195.448C53.8655 198.341 52.3376 201.238 51.9614 204.296C51.7928 205.646 51.8686 207.021 52.168 208.346C49.3561 202.199 47.8763 195.487 47.8763 188.737C47.8763 187.041 47.9691 185.345 48.1588 183.654C48.3148 182.27 48.5298 180.894 48.808 179.532C50.313 172.166 53.5718 165.15 58.2724 159.29C60.532 158.054 62.4165 156.122 63.5547 153.806C63.9636 152.97 64.284 152.072 64.4358 151.156C64.1786 151.19 63.4661 147.271 63.6601 147.03C63.3017 146.486 62.6603 146.215 62.2689 145.684C60.3223 143.043 57.6404 143.504 56.2404 147.093C53.2495 148.604 53.2205 151.109 55.0557 153.519C56.2233 155.052 56.3837 157.126 57.4081 158.767C57.3027 158.902 57.1931 159.033 57.0877 159.168C55.155 161.648 53.4834 164.315 52.0742 167.116C52.4725 164.003 51.8845 160.252 50.8821 157.834C49.7411 155.08 47.6023 152.76 45.7189 150.378C43.4566 147.518 38.8176 148.766 38.419 152.392L38.4077 152.498C38.6875 152.656 38.9615 152.823 39.2292 153.001C40.7562 154.011 40.2285 156.38 38.4192 156.66L38.3782 156.666C38.4794 157.674 38.6522 158.674 38.9052 159.657C36.489 169.008 41.7053 172.413 49.1536 172.567C49.3181 172.651 49.4783 172.735 49.6427 172.815C48.8881 174.942 48.2852 177.123 47.8384 179.333C47.4379 181.287 47.1596 183.261 47.0036 185.244C46.8097 187.746 46.8266 190.26 47.0374 192.758L47.0247 192.669C46.4893 189.918 44.997 187.349 42.83 185.569C39.602 182.915 35.0414 181.938 31.5589 179.805C29.8825 178.778 27.7344 180.105 28.027 182.05L28.0412 182.143C28.5597 182.354 29.0656 182.599 29.5546 182.873C29.8344 183.031 30.1085 183.199 30.3762 183.376C31.9032 184.386 31.3754 186.755 29.5661 187.035L29.5251 187.041L29.4408 187.054C30.3303 189.167 31.5697 191.129 33.1211 192.821C34.6319 200.984 41.1207 201.758 48.0618 199.381H48.066C48.8248 202.689 49.9336 205.92 51.3585 209H63.1204C63.1626 208.869 63.2005 208.734 63.2385 208.603C62.1508 208.671 61.0547 208.608 59.9839 208.409C60.8566 207.338 61.7292 206.258 62.6019 205.186C62.623 205.165 62.6399 205.144 62.6567 205.123C63.0994 204.575 63.5462 204.03 63.9889 203.482C64.0166 201.798 63.8148 200.119 63.4152 198.491Z" fill="#F6E332"/>
<path d="M1140.02 198.491C1141.37 198.575 1142.11 196.899 1141.09 195.922L1140.99 195.518L1141.03 195.421C1142.4 192.167 1147.02 192.189 1148.37 195.448C1149.57 198.341 1151.1 201.238 1151.47 204.296C1151.64 205.646 1151.57 207.021 1151.27 208.346C1154.08 202.199 1155.56 195.487 1155.56 188.737C1155.56 187.041 1155.47 185.345 1155.28 183.654C1155.12 182.27 1154.91 180.894 1154.63 179.532C1153.12 172.166 1149.86 165.15 1145.16 159.29C1142.9 158.054 1141.02 156.122 1139.88 153.806C1139.47 152.97 1139.15 152.072 1139 151.156C1139.26 151.19 1139.97 147.271 1139.78 147.03C1140.13 146.486 1140.78 146.215 1141.17 145.684C1143.11 143.043 1145.8 143.504 1147.2 147.093C1150.19 148.604 1150.22 151.109 1148.38 153.519C1147.21 155.052 1147.05 157.126 1146.03 158.767C1146.13 158.902 1146.24 159.033 1146.35 159.168C1148.28 161.648 1149.95 164.315 1151.36 167.116C1150.96 164.003 1151.55 160.252 1152.55 157.834C1153.69 155.08 1155.83 152.76 1157.72 150.378C1159.98 147.518 1164.62 148.766 1165.02 152.392L1165.03 152.498C1164.75 152.656 1164.47 152.823 1164.21 153.001C1162.68 154.011 1163.21 156.38 1165.02 156.66L1165.06 156.666C1164.96 157.674 1164.78 158.674 1164.53 159.657C1166.95 169.008 1161.73 172.413 1154.28 172.567C1154.12 172.651 1153.96 172.735 1153.79 172.815C1154.55 174.942 1155.15 177.123 1155.6 179.333C1156 181.287 1156.28 183.261 1156.43 185.244C1156.63 187.746 1156.61 190.26 1156.4 192.758L1156.41 192.669C1156.95 189.918 1158.44 187.349 1160.61 185.569C1163.83 182.915 1168.39 181.938 1171.88 179.805C1173.55 178.778 1175.7 180.105 1175.41 182.05L1175.39 182.143C1174.88 182.354 1174.37 182.599 1173.88 182.873C1173.6 183.031 1173.33 183.199 1173.06 183.376C1171.53 184.386 1172.06 186.755 1173.87 187.035L1173.91 187.041L1173.99 187.054C1173.11 189.167 1171.87 191.129 1170.31 192.821C1168.8 200.984 1162.31 201.758 1155.37 199.381H1155.37C1154.61 202.689 1153.5 205.92 1152.08 209H1140.32C1140.27 208.869 1140.24 208.734 1140.2 208.603C1141.28 208.671 1142.38 208.608 1143.45 208.409C1142.58 207.338 1141.71 206.258 1140.83 205.186C1140.81 205.165 1140.8 205.144 1140.78 205.123C1140.34 204.575 1139.89 204.03 1139.45 203.482C1139.42 201.798 1139.62 200.119 1140.02 198.491Z" fill="#F6E332"/>
<path d="M2.06532 209.975H1237.93C1239.08 209.975 1240 209.64 1240 209.227C1240 208.814 1239.08 208.479 1237.93 208.479H2.06532C0.924669 208.479 0 208.814 0 209.227C0 209.64 0.924669 209.975 2.06532 209.975Z" fill="#E6E6E6"/>
<path d="M121 209H113H105L108.257 136.5L111.514 64H113H114.486L117.743 136.5L121 209Z" fill="#E6E6E6"/>
<path d="M95.5517 0.352272C95.5609 0.27437 95.5926 0.200899 95.643 0.141049C95.6934 0.0811987 95.7603 0.0376251 95.8352 0.0157802C95.9101 -0.00606462 95.9897 -0.00521218 96.0642 0.0182308C96.1386 0.0416738 96.2045 0.0866683 96.2536 0.147584C98.9671 3.55302 101.387 7.18497 103.487 11.004C106.396 16.2881 108.673 21.9001 110.271 27.7229C111.809 33.3394 112.703 39.1143 112.937 44.9351C113.108 49.1808 112.929 53.4335 112.402 57.6495C112.393 57.7276 112.361 57.8011 112.31 57.8608C112.259 57.9205 112.191 57.9638 112.116 57.9851C112.041 58.0064 111.961 58.0048 111.887 57.9806C111.812 57.9564 111.747 57.9106 111.698 57.8489C109.59 55.2004 107.658 52.4153 105.913 49.5117C99.8691 39.4625 96.2275 28.1391 95.2752 16.4335C94.8318 11.0773 94.9244 5.68984 95.5517 0.352272Z" fill="#E6E6E6"/>
<path d="M172.712 51.9362C172.787 51.9568 172.854 51.998 172.905 52.0545C172.956 52.111 172.988 52.1803 172.997 52.2539C173.006 52.3275 172.993 52.402 172.957 52.4682C172.922 52.5343 172.867 52.5892 172.798 52.6259C168.988 54.655 165.001 56.374 160.881 57.7645C145.561 62.935 128.895 63.3833 113.287 59.0448C113.211 59.0239 113.144 58.9825 113.094 58.9258C113.043 58.8692 113.012 58.7998 113.003 58.7262C112.994 58.6527 113.008 58.5783 113.043 58.5123C113.079 58.4463 113.134 58.3916 113.203 58.3551C116.165 56.7791 119.234 55.3875 122.389 54.1891C133.315 50.0435 145.111 48.3448 156.851 49.2267C162.221 49.6263 167.534 50.534 172.712 51.9362Z" fill="#E6E6E6"/>
<path d="M111.469 59.026C111.541 58.998 111.62 58.9925 111.696 59.0102C111.771 59.0279 111.84 59.068 111.892 59.1253C111.946 59.1821 111.982 59.2537 111.995 59.331C112.007 59.4082 111.997 59.4876 111.965 59.559C110.187 63.521 108.076 67.3232 105.655 70.9242C99.0609 80.75 90.2748 88.8914 79.9971 94.6997C76.3292 96.7751 72.4957 98.5396 68.5362 99.9747C68.462 100.003 68.381 100.008 68.304 99.9885C68.227 99.9694 68.1575 99.9272 68.1048 99.8676C68.0523 99.8101 68.0176 99.7384 68.0052 99.6613C67.9927 99.5843 68.0029 99.5052 68.0347 99.4339C69.4211 96.355 71.0072 93.371 72.7827 90.5011C78.9164 80.5658 87.2601 72.1972 97.1571 66.0541C101.682 63.2362 106.476 60.8816 111.469 59.026Z" fill="#E6E6E6"/>
<path d="M116 61.4951C116.001 62.3047 115.722 63.0897 115.209 63.7163C114.696 64.343 113.982 64.7725 113.188 64.9317C112.394 65.0909 111.57 64.9699 110.855 64.5894C110.141 64.2089 109.58 63.5924 109.269 62.845C108.958 62.0975 108.915 61.2652 109.149 60.49C109.383 59.7148 109.878 59.0446 110.55 58.5935C111.222 58.1424 112.03 57.9384 112.836 58.0162C113.642 58.094 114.396 58.4488 114.97 59.0201C115.296 59.3442 115.556 59.7298 115.732 60.1545C115.909 60.5793 116 61.0349 116 61.4951Z" fill="#F6E332"/>
</svg>
